<svg width="353" height="64" viewBox="0 0 353 64" fill="none" xmlns="http://www.w3.org/2000/svg">
<rect width="353" height="64" rx="32" fill="#404040"/>
<path d="M39.5489 38.216C38.3249 38.216 37.2089 37.934 36.2009 37.37C35.2049 36.794 34.4189 36.008 33.8429 35.012C33.2669 34.016 32.9789 32.912 32.9789 31.7C32.9789 30.488 33.2669 29.384 33.8429 28.388C34.4189 27.392 35.2049 26.612 36.2009 26.048C37.2089 25.472 38.3249 25.184 39.5489 25.184C40.5569 25.184 41.4749 25.382 42.3029 25.778C43.1309 26.174 43.8209 26.72 44.3729 27.416C44.9369 28.1 45.3389 28.868 45.5789 29.72H43.3649C43.0529 28.94 42.5669 28.322 41.9069 27.866C41.2469 27.398 40.4609 27.164 39.5489 27.164C38.7089 27.164 37.9529 27.362 37.2809 27.758C36.6089 28.142 36.0809 28.676 35.6969 29.36C35.3249 30.044 35.1389 30.824 35.1389 31.7C35.1389 32.576 35.3249 33.356 35.6969 34.04C36.0809 34.724 36.6089 35.264 37.2809 35.66C37.9529 36.044 38.7089 36.236 39.5489 36.236C40.5089 36.236 41.3249 35.984 41.9969 35.48C42.6809 34.976 43.1669 34.316 43.4549 33.5H45.6689C45.4169 34.424 45.0029 35.246 44.4269 35.966C43.8509 36.674 43.1429 37.226 42.3029 37.622C41.4629 38.018 40.5449 38.216 39.5489 38.216ZM51.6859 38.18C50.7859 38.18 49.9699 37.976 49.2379 37.568C48.5179 37.16 47.9539 36.596 47.5459 35.876C47.1379 35.144 46.9339 34.322 46.9339 33.41C46.9339 32.498 47.1379 31.682 47.5459 30.962C47.9539 30.23 48.5179 29.66 49.2379 29.252C49.9699 28.844 50.7859 28.64 51.6859 28.64C52.5859 28.64 53.3959 28.844 54.1159 29.252C54.8479 29.66 55.4179 30.23 55.8259 30.962C56.2339 31.682 56.4379 32.498 56.4379 33.41C56.4379 34.322 56.2339 35.144 55.8259 35.876C55.4179 36.596 54.8479 37.16 54.1159 37.568C53.3959 37.976 52.5859 38.18 51.6859 38.18ZM51.6859 36.47C52.5379 36.47 53.2099 36.194 53.7019 35.642C54.2059 35.09 54.4579 34.346 54.4579 33.41C54.4579 32.474 54.2059 31.73 53.7019 31.178C53.2099 30.626 52.5379 30.35 51.6859 30.35C50.8339 30.35 50.1559 30.626 49.6519 31.178C49.1599 31.73 48.9139 32.474 48.9139 33.41C48.9139 34.346 49.1599 35.09 49.6519 35.642C50.1559 36.194 50.8339 36.47 51.6859 36.47ZM59.3021 38H57.1601L59.4101 33.41L57.2501 28.82H59.4461L61.1381 32.51H62.2181L63.9281 28.82H66.0701L63.9101 33.41L66.1601 38H63.9641L62.1821 34.22H61.1021L59.3021 38ZM67.9524 41.42V28.82H69.7524V30.17H69.8424C70.1184 29.726 70.5264 29.36 71.0664 29.072C71.6184 28.784 72.2304 28.64 72.9024 28.64C73.6824 28.64 74.3904 28.838 75.0264 29.234C75.6744 29.63 76.1844 30.194 76.5564 30.926C76.9404 31.646 77.1324 32.474 77.1324 33.41C77.1324 34.346 76.9404 35.18 76.5564 35.912C76.1844 36.632 75.6744 37.19 75.0264 37.586C74.3904 37.982 73.6824 38.18 72.9024 38.18C72.2304 38.18 71.6244 38.036 71.0844 37.748C70.5564 37.46 70.1724 37.124 69.9324 36.74H69.8424V41.42H67.9524ZM72.4524 36.47C73.2804 36.47 73.9344 36.206 74.4144 35.678C74.9064 35.138 75.1524 34.382 75.1524 33.41C75.1524 32.438 74.9064 31.688 74.4144 31.16C73.9344 30.62 73.2804 30.35 72.4524 30.35C71.6724 30.35 71.0424 30.62 70.5624 31.16C70.0824 31.688 69.8424 32.438 69.8424 33.41C69.8424 34.382 70.0824 35.138 70.5624 35.678C71.0424 36.206 71.6724 36.47 72.4524 36.47ZM82.8045 38.18C82.0245 38.18 81.3105 37.982 80.6625 37.586C80.0265 37.19 79.5165 36.632 79.1325 35.912C78.7605 35.18 78.5745 34.346 78.5745 33.41C78.5745 32.474 78.7605 31.646 79.1325 30.926C79.5165 30.194 80.0265 29.63 80.6625 29.234C81.3105 28.838 82.0245 28.64 82.8045 28.64C83.4765 28.64 84.0825 28.784 84.6225 29.072C85.1745 29.36 85.5885 29.726 85.8645 30.17H85.9545V28.82H87.7545V38H85.9545V36.65H85.8645C85.5885 37.094 85.1745 37.46 84.6225 37.748C84.0825 38.036 83.4765 38.18 82.8045 38.18ZM83.2545 36.47C84.0345 36.47 84.6645 36.206 85.1445 35.678C85.6245 35.138 85.8645 34.382 85.8645 33.41C85.8645 32.438 85.6245 31.688 85.1445 31.16C84.6645 30.62 84.0345 30.35 83.2545 30.35C82.4265 30.35 81.7665 30.614 81.2745 31.142C80.7945 31.67 80.5545 32.426 80.5545 33.41C80.5545 34.382 80.7945 35.138 81.2745 35.678C81.7665 36.206 82.4265 36.47 83.2545 36.47ZM96.6666 32.51V28.82H98.5566V38H96.6666V34.22H92.1666V38H90.2766V28.82H92.1666V32.51H96.6666ZM104.4 38H101.07V28.82H102.96L102.942 36.29H103.392L106.416 28.82H109.746V38H107.856L107.874 30.53H107.424L104.4 38ZM116.137 38H114.247V30.53H111.187V28.82H119.197V30.53H116.137V38ZM124.846 31.88C125.986 31.88 126.856 32.168 127.456 32.744C128.068 33.308 128.374 34.04 128.374 34.94C128.374 35.84 128.068 36.578 127.456 37.154C126.856 37.718 125.986 38 124.846 38H120.634V28.82H122.524V31.88H124.846ZM124.936 36.29C125.416 36.29 125.776 36.17 126.016 35.93C126.268 35.69 126.394 35.36 126.394 34.94C126.394 34.52 126.268 34.19 126.016 33.95C125.776 33.71 125.416 33.59 124.936 33.59H122.524V36.29H124.936Z" fill="white"/>
<path fill-rule="evenodd" clip-rule="evenodd" d="M307.518 24.0185C307.161 24.3765 307.161 24.9569 307.518 25.3148L314.204 32L307.518 38.6852C307.161 39.0431 307.161 39.6235 307.518 39.9815C307.876 40.3395 308.457 40.3395 308.815 39.9815L316.148 32.6482C316.506 32.2902 316.506 31.7098 316.148 31.3518L308.815 24.0185C308.457 23.6605 307.876 23.6605 307.518 24.0185Z" fill="white" fill-opacity="0.62"/>
</svg>
