<svg width="164" height="64" viewBox="0 0 164 64" fill="none" xmlns="http://www.w3.org/2000/svg">
<rect width="164" height="64" rx="32" fill="#2E2E2E"/>
<path d="M41.6779 25.4L44.6119 36.02H46.0159V40.52H44.0359V38H34.5859V40.52H32.6059V36.02H34.0099L36.9439 25.4H41.6779ZM40.1479 27.29H38.4379L36.0619 36.02H42.5059L40.1479 27.29ZM50.8914 38.18C50.1114 38.18 49.3974 37.982 48.7494 37.586C48.1134 37.19 47.6034 36.632 47.2194 35.912C46.8474 35.18 46.6614 34.346 46.6614 33.41C46.6614 32.474 46.8474 31.646 47.2194 30.926C47.6034 30.194 48.1134 29.63 48.7494 29.234C49.3974 28.838 50.1114 28.64 50.8914 28.64C51.5634 28.64 52.1694 28.784 52.7094 29.072C53.2614 29.36 53.6754 29.726 53.9514 30.17H54.0414V28.82H55.8414V38H54.0414V36.65H53.9514C53.6754 37.094 53.2614 37.46 52.7094 37.748C52.1694 38.036 51.5634 38.18 50.8914 38.18ZM51.3414 36.47C52.1214 36.47 52.7514 36.206 53.2314 35.678C53.7114 35.138 53.9514 34.382 53.9514 33.41C53.9514 32.438 53.7114 31.688 53.2314 31.16C52.7514 30.62 52.1214 30.35 51.3414 30.35C50.5134 30.35 49.8534 30.614 49.3614 31.142C48.8814 31.67 48.6414 32.426 48.6414 33.41C48.6414 34.382 48.8814 35.138 49.3614 35.678C49.8534 36.206 50.5134 36.47 51.3414 36.47ZM59.4075 38H57.4635L59.9475 28.82H64.0875L66.5715 38H64.5735L62.6295 30.53H61.3695L59.4075 38ZM72.4017 31.88C73.5417 31.88 74.4117 32.168 75.0117 32.744C75.6237 33.308 75.9297 34.04 75.9297 34.94C75.9297 35.84 75.6237 36.578 75.0117 37.154C74.4117 37.718 73.5417 38 72.4017 38H68.1897V28.82H70.0797V31.88H72.4017ZM72.4917 36.29C72.9717 36.29 73.3317 36.17 73.5717 35.93C73.8237 35.69 73.9497 35.36 73.9497 34.94C73.9497 34.52 73.8237 34.19 73.5717 33.95C73.3317 33.71 72.9717 33.59 72.4917 33.59H70.0797V36.29H72.4917ZM89.4367 38H77.6467V28.82H79.5367V36.29H82.5967V28.82H84.4867V36.29H87.5467V28.82H89.4367V38ZM100.937 34.04H93.4493C93.5693 34.784 93.8753 35.378 94.3673 35.822C94.8713 36.254 95.4893 36.47 96.2213 36.47C97.4093 36.47 98.2493 35.99 98.7413 35.03H100.721C100.553 35.57 100.271 36.08 99.8753 36.56C99.4793 37.04 98.9693 37.43 98.3453 37.73C97.7333 38.03 97.0253 38.18 96.2213 38.18C95.3333 38.18 94.5233 37.97 93.7913 37.55C93.0593 37.13 92.4773 36.56 92.0453 35.84C91.6253 35.108 91.4153 34.298 91.4153 33.41C91.4153 32.522 91.6253 31.718 92.0453 30.998C92.4773 30.266 93.0593 29.69 93.7913 29.27C94.5233 28.85 95.3333 28.64 96.2213 28.64C97.0973 28.64 97.8893 28.844 98.5973 29.252C99.3173 29.66 99.8873 30.242 100.307 30.998C100.727 31.742 100.937 32.606 100.937 33.59V34.04ZM96.2213 30.35C95.5373 30.35 94.9493 30.548 94.4573 30.944C93.9773 31.328 93.6593 31.85 93.5033 32.51H98.9573C98.8013 31.874 98.4833 31.358 98.0033 30.962C97.5233 30.554 96.9293 30.35 96.2213 30.35Z" fill="white"/>
<path fill-rule="evenodd" clip-rule="evenodd" d="M118.518 24.0185C118.161 24.3765 118.161 24.9569 118.518 25.3148L125.204 32L118.518 38.6852C118.161 39.0431 118.161 39.6235 118.518 39.9815C118.876 40.3395 119.457 40.3395 119.815 39.9815L127.148 32.6482C127.506 32.2902 127.506 31.7098 127.148 31.3518L119.815 24.0185C119.457 23.6605 118.876 23.6605 118.518 24.0185Z" fill="white" fill-opacity="0.62"/>
</svg>
