<svg width="56" height="56" viewBox="0 0 56 56" fill="none" xmlns="http://www.w3.org/2000/svg">
<rect width="56" height="56" rx="28" fill="#2E2E2E"/>
<path d="M36 38H20" stroke="white" stroke-width="1.5" stroke-linecap="round"/>
<path d="M21.6631 24.111L20.9211 23.371C20.6289 23.0789 20.3971 22.7321 20.2389 22.3504C20.0808 21.9687 19.9993 21.5596 19.9993 21.1464C19.9992 20.7332 20.0806 20.3241 20.2386 19.9423C20.3967 19.5606 20.6284 19.2137 20.9206 18.9215C21.2127 18.6293 21.5595 18.3975 21.9412 18.2394C22.3229 18.0812 22.732 17.9998 23.1452 17.9998C23.5584 17.9997 23.9675 18.081 24.3493 18.2391C24.731 18.3972 25.0779 18.6289 25.3701 18.921L26.1121 19.663C26.1121 19.663 26.0191 21.239 24.6291 22.629C23.2391 24.019 21.6631 24.112 21.6631 24.112L28.4801 30.929C28.9421 31.391 29.1721 31.621 29.4271 31.82C29.7277 32.0547 30.0507 32.2544 30.3961 32.419C30.6871 32.558 30.9971 32.661 31.6161 32.867L34.2421 33.743M26.1121 19.662L32.9291 26.48C33.3911 26.942 33.6221 27.172 33.8201 27.427C34.0546 27.7271 34.2555 28.0521 34.4191 28.396C34.5581 28.687 34.6611 28.997 34.8681 29.616L35.7431 32.242M35.7431 32.242L35.9561 32.883C36.006 33.0325 36.0133 33.1929 35.9771 33.3463C35.941 33.4997 35.8628 33.6399 35.7514 33.7513C35.64 33.8628 35.4997 33.9409 35.3463 33.9771C35.1929 34.0133 35.0325 34.006 34.8831 33.956L34.2421 33.743M35.7431 32.242L34.2421 33.743" stroke="white" stroke-width="1.5"/>
</svg>
