<svg width="64" height="64" viewBox="0 0 64 64" fill="none" xmlns="http://www.w3.org/2000/svg">
<rect width="64" height="64" rx="32" fill="#EBEBEB"/>
<path fill-rule="evenodd" clip-rule="evenodd" d="M28 32C28 33.0609 28.4214 34.0783 29.1716 34.8284C29.9217 35.5786 30.9391 36 32 36C33.0609 36 34.0783 35.5786 34.8284 34.8284C35.5786 34.0783 36 33.0609 36 32C36 30.9391 35.5786 29.9217 34.8284 29.1716C34.0783 28.4214 33.0609 28 32 28C30.9391 28 29.9217 28.4214 29.1716 29.1716C28.4214 29.9217 28 30.9391 28 32ZM30 32C30 32.5304 30.2107 33.0391 30.5858 33.4142C30.9609 33.7893 31.4696 34 32 34C32.5304 34 33.0391 33.7893 33.4142 33.4142C33.7893 33.0391 34 32.5304 34 32C34 31.4696 33.7893 30.9609 33.4142 30.5858C33.0391 30.2107 32.5304 30 32 30C31.4696 30 30.9609 30.2107 30.5858 30.5858C30.2107 30.9609 30 31.4696 30 32Z" fill="#6B6B6A"/>
<path fill-rule="evenodd" clip-rule="evenodd" d="M32.0001 23C26.4081 23 21.7101 26.824 20.3781 32C21.7101 37.176 26.4081 41 32.0001 41C37.5921 41 42.2901 37.176 43.6221 32C42.2901 26.824 37.5921 23 32.0001 23ZM32.0001 39C36.4761 39 40.2691 36.058 41.5431 32C40.2691 27.942 36.4761 25 32.0001 25C27.5241 25 23.7311 27.942 22.4571 32C23.7311 36.058 27.5241 39 32.0001 39Z" fill="#6B6B6A"/>
</svg>
