<svg width="56" height="56" viewBox="0 0 56 56" fill="none" xmlns="http://www.w3.org/2000/svg">
<circle cx="28" cy="28" r="28" fill="#A9A9A9"/>
<path d="M37.2913 20.6118C36.7805 20.1008 36.1741 19.6955 35.5066 19.4189C34.8392 19.1423 34.1238 19 33.4013 19C32.6788 19 31.9634 19.1423 31.2959 19.4189C30.6285 19.6955 30.022 20.1008 29.5113 20.6118L28.4513 21.6718L27.3913 20.6118C26.3596 19.5801 24.9603 19.0005 23.5013 19.0005C22.0423 19.0005 20.643 19.5801 19.6113 20.6118C18.5796 21.6435 18 23.0428 18 24.5018C18 25.9609 18.5796 27.3601 19.6113 28.3918L20.6713 29.4518L28.4513 37.2318L36.2313 29.4518L37.2913 28.3918C37.8023 27.8811 38.2076 27.2746 38.4842 26.6072C38.7608 25.9397 38.9031 25.2243 38.9031 24.5018C38.9031 23.7793 38.7608 23.0639 38.4842 22.3965C38.2076 21.729 37.8023 21.1226 37.2913 20.6118V20.6118Z" stroke="white" stroke-width="2" stroke-linecap="round" stroke-linejoin="round"/>
</svg>
