<svg width="280" height="238" viewBox="0 0 280 238" fill="none" xmlns="http://www.w3.org/2000/svg">
<path d="M59.0996 196.004C78.2975 195.427 90.3905 196.377 109.363 193.233C129.13 189.942 154.658 184.298 178.622 191.071C190.08 194.307 201.105 194.616 212.814 192.609C217.399 191.824 235.023 180.915 263.37 195.996C272.72 200.97 269.955 216.08 269.507 217.541C266.291 228.006 259.279 234.778 230.266 236.274C204.076 237.628 104.788 238.618 81.0141 237.547C61.0945 236.652 36.0682 238.37 16.7232 232.928C10.9061 231.294 4.38179 223.364 6.4574 213.193C7.9557 205.843 18.0598 200.121 24.613 197.841C34.619 194.359 48.6029 196.293 59.0996 196.004Z" fill="#D7DFF9"/>
<path d="M211.309 63.3871L210.177 68.2428L219.605 70.5291V64.5302L211.309 63.3871Z" fill="#EDB2A2"/>
<path d="M219.273 43.0833C213.291 41.385 207.065 44.8574 205.367 50.839C205.252 51.2467 205.159 51.6607 205.09 52.0788C205.033 52.415 204.884 52.7289 204.66 52.9852L202.087 55.9443C201.991 56.0711 202.015 56.2522 202.142 56.3489C202.175 56.3736 202.212 56.3912 202.252 56.4005L205.344 56.8566C206.96 62.8608 213.138 66.4176 219.143 64.801C225.147 63.1843 228.704 57.0063 227.087 51.0021C226.058 47.1791 223.096 44.178 219.287 43.0977L219.273 43.0833Z" fill="#EDB2A2"/>
<path d="M207.458 52.1396C208.454 51.4236 212.461 49.0045 216.118 53.508C216.204 53.6111 216.189 53.764 216.086 53.8495C216.082 53.8532 216.077 53.857 216.072 53.8603C215.206 54.4637 211.67 56.4413 207.443 52.518C207.342 52.4277 207.333 52.2727 207.424 52.1714C207.434 52.1597 207.445 52.1491 207.458 52.1396Z" fill="white"/>
<path d="M213.746 53.1535C213.919 52.0864 213.195 51.081 212.127 50.9079C211.06 50.7347 210.055 51.4593 209.882 52.5263C209.709 53.5934 210.433 54.5988 211.5 54.7719C212.567 54.9451 213.573 54.2205 213.746 53.1535Z" fill="#8097F0"/>
<path d="M211.034 212.826L227.322 213.404L222.166 115.126L195.864 111.91L171.23 154.875C169.944 157.422 169.568 160.333 170.165 163.123L175.702 199.287L191.482 198.998L187.319 162.537C186.854 160.161 187.983 158.495 189.051 156.307L206.759 121.665L211.034 212.826Z" fill="#EDB2A2"/>
<path d="M190.093 112.138L200.249 86.7794C201.023 79.2735 203.869 69.9575 210.463 67.1024L217.033 68.2572C221.034 69.9692 224.227 74.1551 223.618 82.9341L223.303 87.9718C222.741 96.8994 223.138 105.862 224.49 114.704L224.643 115.715C224.656 115.829 224.574 115.932 224.46 115.945C224.446 115.947 224.432 115.947 224.418 115.946L190.557 112.897C190.251 112.868 190.027 112.595 190.056 112.289C190.061 112.237 190.074 112.186 190.093 112.138Z" fill="#8097F0"/>
<path d="M181.371 91.166C182.356 86.9951 179.773 82.8155 175.602 81.8307C171.432 80.8458 167.252 83.4286 166.267 87.5995C165.282 91.7703 167.865 95.9499 172.036 96.9347C176.207 97.9196 180.386 95.3368 181.371 91.166Z" fill="#EDB2A2"/>
<path d="M211.649 50.1765C213.719 51.5044 216.008 52.7256 217.281 54.8302C218.459 56.7788 218.566 59.1864 218.355 61.4526C218.144 63.7189 216.943 67.3996 217.033 69.6716C217.111 71.6463 217.61 72.3563 218.188 74.2444C218.638 75.7108 219.876 76.9926 220.872 78.1618C222.027 79.5245 223.759 80.3068 225.509 80.6908C229.276 81.5164 233.563 80.4946 236.066 77.5643C238.569 74.6341 238.728 69.7495 235.962 67.0647C235.032 66.1612 233.863 65.5463 232.818 64.7726C230.757 63.2377 229.218 61.1061 228.41 58.6668C227.079 54.6251 227.833 49.9484 225.719 46.2533C223.27 41.9788 217.819 40.4995 213.544 42.9492C213.542 42.9506 213.539 42.9521 213.537 42.9535C213.765 42.8236 210.332 41.103 209.812 41.0885C208.282 41.0394 206.741 41.9978 206.348 43.5481C205.679 46.1146 209.827 49.0044 211.649 50.1765Z" fill="#D7DFF9"/>
<path d="M220.46 50.5057L215.673 52.1916C215.404 52.2863 215.262 52.5814 215.357 52.8505C215.372 52.8922 215.392 52.9316 215.416 52.9682L216.891 55.1247C217.051 55.3614 217.372 55.4242 217.609 55.2649C217.647 55.2392 217.681 55.2087 217.711 55.1738L221.026 51.317C221.202 51.0929 221.164 50.768 220.939 50.5912C220.804 50.4844 220.624 50.4523 220.46 50.5057Z" fill="#FF9F69"/>
<path d="M197.133 228.248C197.798 228.801 198.684 229.007 199.524 228.805C203.967 227.743 218.34 224.821 222.177 218.828V227.803C222.175 228.21 222.504 228.541 222.91 228.542C222.912 228.542 222.914 228.542 222.916 228.542H226.854C227.262 228.542 227.593 228.212 227.593 227.803C227.593 227.799 227.593 227.794 227.593 227.789L227.385 216.853L226.842 198.118H210.211C210.181 198.124 210.151 198.124 210.121 198.118L210.629 210.349C210.679 211.579 210.322 212.79 209.613 213.796C206.813 217.795 203.455 220.295 199.01 222.945L197.02 224.131C195.911 225.16 195.846 226.894 196.874 228.003C196.955 228.09 197.042 228.172 197.133 228.248Z" fill="#FF9F69"/>
<path d="M162.65 228.831C163.313 229.385 164.199 229.593 165.04 229.391C169.483 228.329 183.86 225.404 187.693 219.411V228.39C187.693 228.798 188.024 229.129 188.432 229.129H192.37C192.78 229.127 193.111 228.794 193.109 228.384C193.109 228.381 193.109 228.378 193.109 228.375L192.901 217.437L192.064 198.704H175.436L176.146 210.941C176.196 212.171 175.839 213.382 175.13 214.388C172.329 218.386 168.975 220.889 164.526 223.539L162.537 224.723C161.43 225.755 161.369 227.488 162.4 228.595C162.478 228.679 162.562 228.758 162.65 228.831Z" fill="#FF9F69"/>
<path d="M194.112 113.37L169.426 151.878C169.426 151.878 197.319 163.383 229.903 157.684L222.458 115.709L194.112 113.37Z" fill="#FF9F69"/>
<path d="M207.428 61.0252C208.158 60.7985 208.769 60.2934 209.129 59.6194" stroke="#8097F0" stroke-width="0.288689" stroke-miterlimit="10"/>
<path d="M193.508 127.727L192.353 124.742C196.08 123.189 199.071 117.984 198.883 113.376C198.696 108.769 197.544 105.81 196.429 102.983C195.728 101.199 195.064 99.5191 194.717 97.5705C193.603 91.303 194.319 86.5801 197.275 80.7256C198.863 77.5845 201.372 74.5967 204.949 71.5973C208.329 68.7595 212.454 67.6509 215.985 68.6237C217.994 69.0488 219.765 70.2263 220.933 71.9147C222.793 74.5504 223.321 78.2861 222.498 83.0148C222.045 85.6332 221.003 88.2286 219.992 90.7372C218.745 93.8435 217.567 96.7766 217.59 99.418C217.619 102.897 222.995 106.347 225.061 107.395L223.728 110.281C222.789 109.814 214.556 105.524 214.504 99.4384C214.478 96.1358 215.835 92.7582 217.149 89.4873C218.093 87.1374 219.068 84.7066 219.458 82.4346C220.113 78.6615 219.747 75.6793 218.442 73.8087C217.745 72.7825 216.684 72.06 215.474 71.7879H215.367L215.261 71.7591C212.662 71.0201 209.53 71.8978 206.889 74.1119C203.647 76.8313 201.403 79.4902 200.009 82.2355C197.379 87.432 196.77 91.4476 197.757 96.9962C198.046 98.6129 198.623 100.079 199.29 101.774C200.445 104.722 201.761 108.062 201.972 113.258C202.212 119.182 198.416 125.68 193.508 127.727Z" fill="#FFD150"/>
<path d="M177.454 95.8297L209.157 103.278C210.716 103.68 212.315 102.783 212.783 101.243L219.596 78.8519C220.575 75.6399 218.765 72.2426 215.553 71.2637C215.481 71.2417 215.408 71.2211 215.335 71.2016C212.275 70.3891 209.103 72.0604 208.043 75.044L202.795 90.7775L180.67 85.61L177.454 95.8297Z" fill="#EDB2A2"/>
<path d="M174.529 59.2241C175.014 59.2241 175.407 59.6171 175.407 60.1018C175.407 60.5865 175.014 60.9794 174.529 60.9794C174.044 60.9794 173.651 60.5865 173.651 60.1018C173.651 59.6171 174.044 59.2241 174.529 59.2241Z" fill="#FFD150"/>
<path d="M171.469 55.8378C171.954 55.8378 172.347 56.2307 172.347 56.7154C172.347 57.2001 171.954 57.5931 171.469 57.5931C170.985 57.5931 170.592 57.2001 170.592 56.7154C170.592 56.2307 170.985 55.8378 171.469 55.8378Z" fill="#FFD150"/>
<path d="M170.584 62.8932C171.068 62.8932 171.461 63.2861 171.461 63.7708C171.461 64.2555 171.068 64.6485 170.584 64.6485C170.099 64.6485 169.706 64.2555 169.706 63.7708C169.706 63.2861 170.099 62.8932 170.584 62.8932Z" fill="#FFD150"/>
<path d="M91.4305 65.6962L90.7001 71.4268L87.1233 72.5151L82.2358 70.5058L83.1856 64.5155L91.4305 65.6962Z" fill="#EDB2A2"/>
<path d="M101.059 63.9874L100.092 60.4885C99.953 59.9811 99.953 59.4458 100.092 58.9382C101.666 52.9359 98.0758 46.7939 92.0734 45.2199C86.0711 43.646 79.9291 47.2358 78.3551 53.2381C76.781 59.2405 80.3708 65.3825 86.3733 66.9564C90.5344 68.0476 94.9532 66.6673 97.7533 63.4013L100.712 64.3281C100.868 64.3633 101.022 64.2659 101.058 64.1103C101.067 64.0699 101.067 64.0279 101.059 63.9874Z" fill="#EDB2A2"/>
<path d="M97.8591 58.2538C97.2817 57.1799 94.7008 53.2825 89.487 55.7653C89.3656 55.8217 89.3128 55.9659 89.3694 56.0875C89.3719 56.0927 89.3745 56.098 89.3773 56.103C89.9055 57.0211 92.2324 60.3179 97.7233 58.6031C97.8514 58.5591 97.9195 58.4194 97.8755 58.2912C97.8711 58.2784 97.8655 58.2658 97.8591 58.2538Z" fill="white"/>
<path d="M95.4504 57.7557C95.8573 56.756 95.3768 55.6157 94.377 55.2088C93.3773 54.8019 92.237 55.2824 91.8301 56.2821C91.4231 57.2818 91.9037 58.4222 92.9034 58.8291C93.9031 59.236 95.0435 58.7555 95.4504 57.7557Z" fill="#8097F0"/>
<path d="M93.4416 66.4644C92.8181 66.0255 92.0386 65.1335 91.8135 64.4031L92.0877 64.3193C92.2928 64.992 93.0202 65.8205 93.6062 66.2333L93.4416 66.4644Z" fill="#8097F0"/>
<path d="M103.077 48.583C104.419 48.7823 102.485 52.9883 99.8033 53.5484C95.7616 54.3913 91.1946 54.1951 87.3898 52.5696C87.8978 54.7983 86.7691 57.6852 85.369 59.12C83.9578 60.5662 82.0711 61.4531 80.0571 61.6172C79.8062 61.6541 79.55 61.6271 79.3123 61.5391C79.0628 61.4047 78.8542 61.2053 78.709 60.9618C76.9769 58.3942 76.4686 55.1923 77.3204 52.2146C78.2817 48.9236 80.9 46.2561 84.015 44.8271C87.1299 43.398 89.2489 42.9766 92.6006 43.6723C96.085 44.3999 97.8171 47.8035 103.077 48.583Z" fill="#8097F0"/>
<path d="M110.536 215.309H96.3928L95.417 205.557H109.802L110.536 215.309Z" fill="#EDB2A2"/>
<path d="M96.3931 228.522V216.833C96.3931 216.531 96.6387 216.285 96.9416 216.285H109.901C109.996 216.285 110.089 216.31 110.172 216.357L131.018 228.211L96.3931 228.522Z" fill="#F7E8A6"/>
<path d="M96.979 226.282H128.72C129.718 226.282 130.527 227.091 130.527 228.089V228.132C130.527 229.13 129.718 229.94 128.72 229.94H96.979C95.9809 229.94 95.1719 229.13 95.1719 228.132V228.089C95.1719 227.091 95.9809 226.282 96.979 226.282Z" fill="#FFD150"/>
<path d="M110.859 216.53H96.5542C96.3294 216.53 96.1472 216.348 96.1472 216.123L95.9048 213.28C95.9048 213.055 96.0871 212.873 96.3118 212.873H110.616C110.841 212.873 111.023 213.055 111.023 213.28L111.266 216.123C111.266 216.348 111.083 216.53 110.859 216.53Z" fill="#FFD150"/>
<path d="M48.1591 210.326L35.6963 203.637L40.5521 194.307L53.2255 201.111L48.1591 210.326Z" fill="#EDB2A2"/>
<path d="M29.4502 215.277L34.9787 204.98C35.1214 204.713 35.4535 204.612 35.7205 204.755L47.1438 210.886C47.2278 210.931 47.2984 210.996 47.3488 211.077L60.1059 231.38L29.4502 215.277Z" fill="#F7E8A6"/>
<path d="M31.0182 213.58L58.9841 228.594C59.8634 229.066 60.1936 230.162 59.7216 231.041L59.7011 231.079C59.2289 231.958 58.1334 232.289 57.254 231.817L29.2882 216.803C28.4088 216.33 28.0787 215.235 28.5507 214.356L28.5712 214.317C29.0432 213.438 30.1389 213.108 31.0182 213.58Z" fill="#FFD150"/>
<path d="M47.8674 211.553L35.2633 204.789C35.0657 204.682 34.992 204.435 35.0987 204.238L36.2274 201.616C36.3344 201.419 36.5802 201.344 36.7788 201.449L49.383 208.216C49.5805 208.323 49.6542 208.57 49.5475 208.767L48.4188 211.389C48.312 211.586 48.0652 211.66 47.8674 211.553Z" fill="#FFD150"/>
<path d="M149.669 62.4812L138.377 72.1249L144.807 79.6543L156.099 70.0107L149.669 62.4812Z" fill="#EDB2A2"/>
<path d="M28.8545 109.319L16.0835 116.744L21.0343 125.26L33.8053 117.835L28.8545 109.319Z" fill="#EDB2A2"/>
<path d="M110.964 162.877L114.512 206.371L93.8857 208.023L89.7603 160.444L82.0755 125.79L75.7532 159.762C75.3973 161.671 74.7682 163.518 73.8853 165.248L52.918 206.371L34.7681 197.021L56.769 155.767L65.571 110.114L98.3545 109.863L108.978 151.03C109.977 154.915 110.641 158.879 110.964 162.877Z" fill="#8097F0"/>
<path d="M60.532 78.774L42.8961 96.9383L21.8478 110.03C21.5251 110.23 21.4087 110.644 21.5793 110.983L28.2191 124.237C28.4007 124.599 28.8414 124.745 29.2032 124.563C29.2261 124.552 29.2482 124.539 29.2697 124.525L53.1443 109.375C53.6087 109.121 54.0304 108.795 54.3942 108.411L67.0561 94.6924L64.7467 111.168L99.424 112.406L99.0112 89.3632L118.402 102.319C119.384 102.95 120.657 102.893 121.578 102.175L150.253 78.6672C150.602 78.3833 150.655 77.8706 150.371 77.5219C150.368 77.5187 150.366 77.5156 150.363 77.5124L141.763 67.1196C141.479 66.7692 140.964 66.7153 140.614 66.9996C140.612 67.0011 140.61 67.0026 140.608 67.0042L119.473 84.0223L105.616 74.666C100.383 71.4442 95.9626 69.9315 89.8166 69.9315L87.2473 72.5037L83.3095 69.738C74.8429 69.7368 66.6954 72.9689 60.532 78.774Z" fill="#FFD150"/>
<path d="M23.5322 123.829C24.2278 119.479 21.2651 115.388 16.9149 114.692C12.5646 113.997 8.47414 116.96 7.77854 121.31C7.08294 125.66 10.0456 129.751 14.3959 130.446C18.7461 131.142 22.8366 128.179 23.5322 123.829Z" fill="#EDB2A2"/>
<path d="M159.477 71.7498C162.592 68.6348 162.592 63.5844 159.477 60.4694C156.362 57.3544 151.312 57.3544 148.197 60.4694C145.082 63.5844 145.082 68.6348 148.197 71.7498C151.312 74.8648 156.362 74.8648 159.477 71.7498Z" fill="#EDB2A2"/>
<path d="M78.6787 69.8276L83.2371 76.7907L87.2383 72.5037L82.9513 66.219L78.6787 69.8276Z" fill="#F090F1"/>
<path d="M153.488 42.3589C153.973 42.3589 154.366 42.7518 154.366 43.2365C154.366 43.7212 153.973 44.1142 153.488 44.1142C153.004 44.1142 152.611 43.7212 152.611 43.2365C152.611 42.7518 153.004 42.3589 153.488 42.3589Z" fill="#FFD150"/>
<path d="M156.414 45.8634C156.898 45.8634 157.291 46.2563 157.291 46.741C157.291 47.2257 156.898 47.6187 156.414 47.6187C155.929 47.6187 155.536 47.2257 155.536 46.741C155.536 46.2563 155.929 45.8634 156.414 45.8634Z" fill="#FFD150"/>
<path d="M157.582 38.8511C158.067 38.8511 158.46 39.244 158.46 39.7287C158.46 40.2134 158.067 40.6064 157.582 40.6064C157.098 40.6064 156.705 40.2134 156.705 39.7287C156.705 39.244 157.098 38.8511 157.582 38.8511Z" fill="#FFD150"/>
<path d="M66.9468 133.936L65.4746 131.41C68.3153 129.756 70.1975 128.114 71.4014 126.246C72.8449 124.023 73.1941 121.399 72.3339 119.398C71.9009 118.391 71.1561 117.47 70.368 116.497C69.2999 115.18 68.1971 113.818 67.6833 112.034C66.5834 108.2 68.7399 104.721 70.6423 101.641C71.1475 100.824 71.6268 100.053 72.0453 99.2825C73.5349 96.5405 74.3037 93.465 74.2797 90.3447C74.2624 88.2978 73.9101 86.2771 73.5378 84.1378C73.3646 83.1418 73.1857 82.1171 73.0441 81.0864C72.6746 78.4016 72.3773 74.4292 74.043 70.8986C75.5356 67.7375 78.9998 65.7167 82.9751 66.2998C83.0003 66.3037 83.0176 66.3272 83.0137 66.3524C83.0121 66.3619 83.0077 66.3707 83.001 66.3777L80.7781 68.5977C80.7439 68.6315 80.7061 68.6615 80.6655 68.6872C80.2094 68.9759 77.3283 70.7889 76.6873 72.1515C75.6712 74.3022 75.4343 77.0159 75.9397 80.6938C76.0724 81.6696 76.2486 82.6742 76.4161 83.6442C76.7943 85.8036 77.184 88.038 77.2013 90.3272C77.2284 93.9436 76.3341 97.5072 74.6031 100.682C74.1441 101.525 73.6215 102.368 73.1163 103.182C71.3842 105.986 69.7415 108.63 70.4835 111.22C70.8328 112.432 71.7046 113.509 72.6285 114.649C73.509 115.735 74.4183 116.855 75.0102 118.238C76.2486 121.125 75.8041 124.791 73.8554 127.822C72.3944 130.094 70.1974 132.034 66.9468 133.936Z" fill="#FF9F69"/>
<path d="M89.2921 114.248C88.2846 112.385 88.1845 110.163 89.0207 108.217C89.5807 106.941 90.4843 105.908 91.3562 104.929C92.459 103.679 93.4088 102.602 93.3769 101.378C93.3451 100.411 92.687 99.5046 91.9335 98.4566C91.258 97.5241 90.4901 96.4704 90.1176 95.209C89.4507 92.9485 90.132 90.3013 92.0403 87.7752C92.6178 87.0217 93.2239 86.3317 93.8215 85.6562C94.687 84.7458 95.4651 83.756 96.1455 82.7001C98.7635 78.308 97.3255 72.6251 92.9334 70.0071C92.1367 69.5322 91.2732 69.1797 90.3717 68.9613L91.258 67.1974C94.9013 68.0808 97.8314 69.8447 99.2834 73.3003C100.73 76.8283 100.45 80.829 98.5241 84.1204C97.7559 85.3275 96.8743 86.4584 95.8914 87.4981C95.3141 88.1563 94.7511 88.7798 94.2517 89.4409C93.4607 90.4918 92.2164 92.5357 92.7764 94.4237C93.0131 95.2262 93.5789 96.0057 94.1765 96.8285C95.0743 98.0669 96.0935 99.47 96.1541 101.286C96.232 103.61 94.7569 105.284 93.4519 106.771C92.6869 107.637 91.9623 108.463 91.5726 109.343C91.0768 110.496 91.1363 111.813 91.7342 112.917L89.2921 114.248Z" fill="#FF9F69"/>
<path d="M87.2393 72.5036L91.1336 67.1859L93.8761 70.7051L89.5228 77.0764L87.2393 72.5036Z" fill="#F090F1"/>
<path d="M22.647 129.563C23.9316 131.402 25.2452 133.348 25.4905 135.579C25.7792 138.504 24.1625 141.232 23.3052 144.043C22.3901 147.04 22.4391 150.579 24.46 152.993" stroke="#FFD150" stroke-width="1.44345" stroke-miterlimit="10"/>
<path d="M23.555 129.373L21.9316 130.359L39.1926 158.771L40.8159 157.784L23.555 129.373Z" fill="#EDB2A2"/>
<path d="M5.10645 110.585L12.9548 105.817L27.1661 129.209C27.4881 129.739 27.3195 130.43 26.7894 130.752L20.868 134.349C20.338 134.671 19.6472 134.503 19.3252 133.973L5.1139 110.581L5.10645 110.585Z" fill="#FF9F69"/>
<path d="M3.58023 99.2131L4.0883 115.38C4.09135 115.469 4.16618 115.539 4.2554 115.536C4.28317 115.535 4.31008 115.527 4.33378 115.512L17.931 107.253C18.0108 107.213 18.0428 107.115 18.0027 107.036C17.9871 107.005 17.962 106.98 17.931 106.964L3.82284 99.0658C3.74564 99.0211 3.64677 99.0475 3.6019 99.1247C3.58633 99.1515 3.57888 99.1821 3.58023 99.2131Z" fill="#FF9F69"/>
<path d="M15.0312 109.225L12.1675 122.227L16.1138 128.723L18.6975 115.261L15.0312 109.225Z" fill="#D7DFF9"/>
<path d="M24.7723 132.083L25.7654 126.887L22.0991 120.85L19.2383 133.841C19.6712 134.558 20.6028 134.787 21.3193 134.355C21.3389 134.343 21.3584 134.33 21.3775 134.318L24.7723 132.083Z" fill="#D7DFF9"/>
<path d="M45.2897 52.2379C43.4017 41.0944 44.1725 29.7981 50.668 19.5988C51.5342 18.2622 53.4308 17.22 54.8309 17.9793C56.2454 18.7473 56.2974 20.9527 55.3766 22.3703C53.1924 25.6267 51.3696 29.1116 49.9405 32.763C47.6657 38.5368 46.2541 48.1963 45.8383 52.2148C45.7953 52.3684 45.636 52.4581 45.4826 52.4151C45.3935 52.3902 45.3219 52.3244 45.2897 52.2379Z" fill="#F090F1"/>
<path d="M41.0315 58.8775C29.1318 60.1102 17.7749 63.7851 9.05648 72.3996C7.90169 73.5254 7.35029 75.5376 8.49932 76.6087C9.65411 77.6941 11.9319 77.1544 13.1385 75.9447C15.9272 73.0699 19.0077 70.4933 22.3302 68.257C27.6391 64.6628 37.1486 60.8233 41.1527 59.3798C41.2878 59.3317 41.3584 59.1829 41.3102 59.0478C41.2692 58.9324 41.1531 58.8614 41.0315 58.8775Z" fill="#F090F1"/>
<path d="M35.3786 54.9024C30.7596 54.6339 15.7161 54.2009 4.0703 58.9441C2.30925 59.663 0.334718 58.6756 0.028625 56.9002C-0.181306 55.413 0.784039 54.0134 2.24865 53.6813C12.5607 50.9446 24.3332 50.7742 35.4652 54.5474C35.5561 54.6002 35.587 54.7169 35.5342 54.8078C35.5017 54.8638 35.4431 54.8994 35.3786 54.9024Z" fill="#FFD150"/>
<path d="M39.132 46.9867C37.9513 42.7574 34.5765 28.9149 37.2353 17.2085C37.6394 15.4359 36.2307 13.802 34.3283 13.8713C32.8224 13.9007 31.5738 15.0465 31.4155 16.5445C30.5783 26.6254 32.6944 37.561 38.7654 47.1455C38.8247 47.2401 38.9495 47.2686 39.0439 47.2093C39.1188 47.1623 39.1545 47.0722 39.132 46.9867Z" fill="#FFD150"/>
<path d="M41.328 54.7726L12.8951 38.1787C11.4242 37.3859 10.8747 35.5507 11.6677 34.08C11.7533 33.921 11.853 33.7702 11.9656 33.629C13.1517 32.1278 15.3303 31.8723 16.8315 33.0584C16.8631 33.0835 16.8944 33.1091 16.9253 33.1353L41.4811 54.5762L41.328 54.7726Z" fill="#FF9F69"/>
<path d="M127.592 27.9706C133.839 30.9382 139.266 35.2079 142.202 41.7901C142.586 42.6563 142.465 43.9091 141.608 44.3046C140.741 44.7058 139.616 43.9668 139.214 43.0429C138.307 40.878 137.17 38.8164 135.822 36.8938C133.686 33.828 129.304 29.8239 127.419 28.2332C127.353 28.1754 127.346 28.0752 127.403 28.0092C127.45 27.9555 127.527 27.9398 127.592 27.9706Z" fill="#D7DFF9"/>
<path d="M124.511 22.6876C122.706 16.0103 119.476 9.9074 113.523 5.84269C112.744 5.31143 111.485 5.20478 110.942 5.97831C110.394 6.76064 110.922 7.99906 111.756 8.56198C113.725 9.83985 115.55 11.3256 117.201 12.9934C119.837 15.6436 122.995 20.6725 124.219 22.8089C124.261 22.8859 124.357 22.9141 124.434 22.8722C124.5 22.8363 124.532 22.7594 124.511 22.6876Z" fill="#8097F0"/>
<path d="M128.264 20.4821C128.645 17.8233 129.609 9.15685 127.265 2.26298C126.956 1.3745 127.426 0.403739 128.314 0.0947683C128.442 0.0504119 128.574 0.021464 128.708 0.00825869C129.591 -0.0777453 130.396 0.516665 130.573 1.38534C131.864 7.82904 131.139 14.5138 128.498 20.531C128.484 20.5957 128.421 20.637 128.356 20.6235C128.292 20.6099 128.25 20.5466 128.264 20.4821Z" fill="#FF9F69"/>
<path d="M118.584 23.4758C115.908 23.242 107.198 22.7454 100.446 25.462C99.5743 25.8197 98.5777 25.4029 98.2199 24.5312C98.1698 24.4091 98.1341 24.2816 98.1134 24.1515C97.9804 23.2725 98.5342 22.4354 99.3952 22.2143C105.759 20.5769 112.473 20.9377 118.625 23.2479C118.688 23.2591 118.73 23.3192 118.719 23.3822C118.707 23.4448 118.647 23.487 118.584 23.4758Z" fill="#FF9F69"/>
<path d="M131.895 25.2251C134.56 25.5571 143.177 26.9023 149.216 30.9759C149.994 31.5083 151.056 31.3097 151.588 30.5323C151.662 30.4239 151.724 30.3073 151.771 30.1849C152.081 29.3494 151.706 28.4154 150.905 28.0255C145.027 25.088 138.387 24.0307 131.886 24.9972C131.824 25.0094 131.783 25.07 131.795 25.1327C131.804 25.1818 131.845 25.2193 131.895 25.2251Z" fill="#FF9F69"/>
<path d="M125.712 33.343C125.773 36.0278 125.712 44.7491 122.536 51.3109C122.124 52.1581 122.476 53.1793 123.323 53.5919C123.44 53.6489 123.564 53.6924 123.691 53.7214C124.561 53.9139 125.436 53.4141 125.712 52.5666C127.761 46.3223 127.84 39.5991 125.94 33.3081C125.927 33.2457 125.866 33.2052 125.804 33.2179C125.746 33.2299 125.706 33.2839 125.712 33.343Z" fill="#FF9F69"/>
<path d="M131.659 21.1258L145.998 7.87209C146.763 7.13564 147.98 7.15866 148.716 7.92356C148.758 7.96707 148.798 8.01244 148.836 8.05968C149.497 8.89246 149.358 10.1038 148.525 10.7651C148.465 10.813 148.402 10.8572 148.336 10.8975L131.748 21.2411L131.659 21.1258Z" fill="#FFD150"/>
<path d="M121.482 28.0485L108.436 40.7219C107.635 41.499 106.356 41.4794 105.579 40.6782C105.53 40.6288 105.485 40.5768 105.442 40.5226C104.683 39.57 104.929 38.167 105.154 37.7079L121.395 27.9271L121.482 28.0485Z" fill="#FFD150"/>
<path d="M49.0118 135.723C50.3816 134.353 50.3816 132.133 49.0118 130.763C47.6421 129.393 45.4212 129.393 44.0515 130.763C42.6817 132.133 42.6817 134.353 44.0515 135.723C45.4212 137.093 47.6421 137.093 49.0118 135.723Z" fill="#8097F0"/>
<path d="M204.422 9.73418C202.257 6.29012 197.22 5.04594 193.698 7.08972C192.853 7.54683 192.148 8.22538 191.66 9.05274C190.522 11.1226 191.434 13.7036 192.615 15.7473C193.481 17.2629 194.287 18.5303 195.678 19.5667C198.152 21.4028 201.608 18.4119 199.656 16.0419C199.636 16.0189 193.689 10.528 186.911 15.7389C185.664 16.7002 185.216 17.6355 184.644 19.102C184.073 20.5685 184.266 22.8146 184.619 23.9751C185.326 26.3135 185.603 27.6386 187.598 30.0953C188.4 31.0826 189.795 32.1709 191.062 32.5491C191.764 32.7804 192.535 32.6532 193.126 32.2085C194.229 31.3251 194.059 29.2495 193.467 28.0571C192.237 25.5743 190.335 23.9347 187.598 23.5102C184.861 23.0858 181.247 24.5206 179.927 26.9485C178.72 29.1484 178.983 31.9256 180.034 34.2033C181.085 36.4811 182.834 38.3547 184.598 40.1388" stroke="#F090F1" stroke-width="2.02082" stroke-miterlimit="10"/>
<path d="M250.846 119.465L241.058 127.995L244.533 131.982L254.32 123.453L250.846 119.465Z" fill="#FF9F69"/>
<path d="M149.317 97.2639L146.904 100.567L155.013 106.492L157.426 103.19L149.317 97.2639Z" fill="#8097F0"/>
<path d="M169.296 18.2478C171.379 18.2478 173.069 16.5585 173.069 14.4746C173.069 12.3907 171.379 10.7014 169.296 10.7014C167.212 10.7014 165.522 12.3907 165.522 14.4746C165.522 16.5585 167.212 18.2478 169.296 18.2478Z" fill="#FF9F69"/>
<path d="M268.533 111.907C272.137 111.907 275.06 108.984 275.06 105.379C275.06 101.775 272.137 98.8523 268.533 98.8523C264.928 98.8523 262.005 101.775 262.005 105.379C262.005 108.984 264.928 111.907 268.533 111.907Z" fill="#D7DFF9"/>
<path d="M132.264 124.181C134.885 124.181 137.01 122.057 137.01 119.436C137.01 116.814 134.885 114.69 132.264 114.69C129.643 114.69 127.518 116.814 127.518 119.436C127.518 122.057 129.643 124.181 132.264 124.181Z" fill="#FCBDB6"/>
<path d="M158.741 119.265C158.095 123.348 155.613 126.909 152.006 128.928C152.006 128.928 157.569 131.269 158.155 138.293C158.155 138.293 160.205 130.975 165.473 128.928C165.473 128.928 160.788 127.464 158.741 119.265Z" fill="#FFD150"/>
<path d="M78.1161 15.7015L73.9215 15.0895C73.7637 15.0661 73.6171 15.1752 73.5938 15.3329C73.5839 15.3996 73.5977 15.4679 73.6329 15.5254L75.8905 19.2553C75.9538 19.3597 75.9445 19.4926 75.8674 19.5873L73.096 23.0515C72.9985 23.1776 73.0215 23.3589 73.1477 23.4564C73.2149 23.5084 73.3015 23.5282 73.3848 23.5104L77.9779 22.2749C78.0822 22.2466 78.1936 22.2788 78.2666 22.3587L81.5231 25.9067C81.6297 26.0252 81.8122 26.0349 81.9307 25.9282C81.9976 25.8679 82.0326 25.7799 82.0254 25.6902L81.7135 21.4003C81.7067 21.2709 81.787 21.1529 81.9097 21.1116L85.9514 19.7518C86.1034 19.7037 86.1876 19.5414 86.1393 19.3894C86.1163 19.3166 86.0654 19.2559 85.9976 19.2206L82.0743 17.0872C81.9864 17.0408 81.9287 16.9525 81.9212 16.8534L81.6094 12.8812C81.5982 12.7222 81.4601 12.6023 81.3011 12.6137C81.2281 12.6189 81.1599 12.6516 81.11 12.7051L78.3761 15.6121C78.3099 15.6837 78.2122 15.7174 78.1161 15.7015Z" fill="#FFD150"/>
<path d="M156.725 175.508C151.572 175.796 147.551 171.518 145.997 167.401C144.869 164.41 144.597 161.252 144.332 158.198C144.233 157.058 144.132 155.888 143.985 154.734C143.362 149.869 141.745 146.474 139.181 144.65C137.21 143.247 134.718 142.75 132.083 142.225C129.75 141.76 127.337 141.281 125.154 140.126C120.945 137.9 118.225 133.255 118.41 128.564L121.133 128.653C121.05 132.452 123.106 135.975 126.453 137.773C128.283 138.74 130.397 139.162 132.634 139.606C135.44 140.166 138.341 140.744 140.789 142.493C143.985 144.768 145.986 148.775 146.693 154.399C146.846 155.591 146.95 156.8 147.051 157.967C147.311 160.978 147.556 163.819 148.558 166.469C149.814 169.797 152.969 173.057 156.572 172.843L156.725 175.508Z" fill="#FF9F69"/>
<path d="M276.73 75.7745C273.875 79.8769 269.395 82.5551 264.429 83.1273C262.803 83.2684 261.168 83.2887 259.539 83.1879C258.05 83.0921 256.557 83.1065 255.07 83.2313C247.836 84.028 241.736 91.3664 242.27 98.6241L239.441 98.832C238.788 89.9895 245.945 81.3808 254.761 80.4108C256.386 80.2697 258.019 80.2494 259.646 80.3501C261.136 80.446 262.63 80.4316 264.118 80.3068C272.027 79.4327 277.73 72.3123 276.857 64.403C276.751 63.4482 276.55 62.5062 276.257 61.5911L278.959 60.725C280.514 65.6538 279.798 71.0187 277.005 75.3672C276.915 75.5031 276.823 75.6387 276.73 75.7745Z" fill="#8097F0"/>
<path d="M274.817 138.198L275.085 140.602C268.45 141.407 262.543 145.192 259.04 150.885C258.835 151.226 258.653 151.558 258.489 151.881C261.546 150.992 264.906 151.142 267.727 153.036C269.661 154.341 270.807 156.255 270.787 158.16C270.76 159.534 270.17 160.837 269.156 161.763C267.661 163.127 265.694 163.858 263.671 163.801C259.291 163.668 255.449 160.308 255.065 156.295C254.755 156.536 254.458 156.793 254.176 157.066C250.625 160.513 249.046 165.692 248.07 169.8L245.714 169.243C246.768 164.803 248.492 159.208 252.51 155.325C253.378 154.496 254.348 153.78 255.397 153.195C255.763 151.942 256.299 150.746 256.991 149.638C260.88 143.308 267.442 139.097 274.817 138.198ZM260.729 160.551C261.661 161.062 262.7 161.349 263.763 161.388C265.134 161.423 266.466 160.935 267.49 160.022C268.034 159.546 268.355 158.865 268.376 158.143C268.391 156.861 267.354 155.704 266.384 155.048C263.786 153.316 260.382 153.527 257.516 154.829C257.465 155.221 257.455 155.618 257.487 156.012C257.643 157.872 258.951 159.578 260.729 160.551Z" fill="#FFD150"/>
<path d="M241.29 53.7794C246.971 54.7837 252.478 56.5978 257.644 59.1664C258.397 59.5493 259.31 59.4073 259.91 58.8142C260.698 58.0234 260.695 56.7439 259.904 55.9563C259.758 55.8102 259.589 55.6874 259.405 55.5925C257.266 54.504 254.685 54.126 252.43 53.6381C249.994 53.1099 244.74 53.1358 241.333 53.2196C241.176 53.2443 241.068 53.3921 241.093 53.5497C241.11 53.6572 241.186 53.7461 241.29 53.7794Z" fill="#FCBDB6"/>
<path d="M230.689 39.1371C229.363 35.6729 226.696 29.7518 222.299 24.1022C221.779 23.4375 221.745 22.5138 222.216 21.8129C222.843 20.8897 224.1 20.6496 225.023 21.2767C225.193 21.3924 225.344 21.5332 225.472 21.6946C226.95 23.5912 227.808 26.0537 228.714 28.1728C229.696 30.4649 230.668 35.6296 231.228 38.99C231.231 39.1495 231.104 39.2808 230.945 39.2836C230.839 39.2854 230.741 39.2292 230.689 39.1371Z" fill="#FCBDB6"/>
<path d="M239.715 48.577C239.86 48.6993 240.054 48.7463 240.238 48.704C246.962 47.1595 250.795 47.0931 255.989 47.5954C258.03 47.7916 259.924 48.4616 261.919 47.9995C262.972 47.7542 264.124 47.1104 264.061 45.9268C264.024 45.4343 263.788 44.9781 263.408 44.6623C262.614 43.9724 261.566 43.88 260.565 43.8482C253.532 43.6201 246.644 45.6006 239.921 47.7281C239.458 47.8756 239.343 48.2682 239.715 48.577Z" fill="#FFD150"/>
<path d="M234.397 41.5102C234.295 41.3514 234.271 41.1545 234.333 40.9761C236.643 34.4748 237.157 30.6758 237.261 25.4591C237.301 23.4066 236.848 21.4493 237.549 19.5208C237.919 18.5047 238.704 17.4335 239.859 17.6328C240.344 17.7289 240.769 18.0161 241.04 18.4295C241.634 19.2956 241.617 20.3493 241.519 21.3482C240.942 28.3604 238.164 34.9714 235.272 41.4034C235.073 41.8451 234.668 41.9143 234.406 41.5102H234.397Z" fill="#FFD150"/>
<path d="M237.651 44.7983C237.975 44.9975 238.806 44.3422 239.078 44.0679C240.29 42.812 247.138 34.3247 257.536 30.3235C258.948 29.7807 260.484 28.5914 259.797 27.2663C259.26 26.2212 258.174 25.895 257.037 26.2126C255.133 26.7877 253.333 27.665 251.708 28.8108C248.474 31.1724 240.573 39.96 238.206 42.9363C237.917 43.3145 236.901 44.322 237.651 44.7867V44.7983Z" fill="#FCBDB6"/>
</svg>
