<svg width="26" height="26" viewBox="0 0 26 26" fill="none" xmlns="http://www.w3.org/2000/svg">
<path d="M2.979 17.4882V5.41552H1.354V17.4904L2.979 17.4882ZM24.6457 17.4882V5.34511H23.0207V17.4893L24.6457 17.4882ZM21.7272 2.45802C20.4933 2.50136 18.8823 2.62811 17.6419 2.99969L18.1078 4.55752C19.1369 4.24986 20.5713 4.12419 21.7835 4.08194L21.7272 2.45802ZM17.6419 2.99969C16.564 3.32252 15.3518 3.95411 14.406 4.50119L15.2207 5.90736C16.1415 5.37436 17.2194 4.82402 18.1078 4.55752L17.6419 2.99969ZM4.26384 4.14261C5.31034 4.20652 6.4955 4.33111 7.37625 4.56402L7.79009 2.99211C6.75009 2.71694 5.43275 2.58586 4.3635 2.51977L4.26384 4.14261ZM7.37625 4.56402C8.41842 4.83919 9.70109 5.44152 10.7595 6.00052L11.5178 4.56402C10.4399 3.99311 9.02184 3.31819 7.79117 2.99319L7.37625 4.56402ZM15.1448 22.4574C16.2184 21.8854 17.5488 21.2549 18.6234 20.9711L18.2096 19.4003C16.9421 19.7339 15.4731 20.4414 14.3811 21.0242L15.1448 22.4574ZM18.6234 20.9711C19.4933 20.7414 20.6623 20.6158 21.7012 20.5508L21.5993 18.929C20.5377 18.9962 19.2388 19.1273 18.2085 19.3992L18.6234 20.9711ZM11.6186 21.0231C10.5266 20.4414 9.05867 19.7339 7.79009 19.3992L7.37625 20.97C8.45092 21.2549 9.78125 21.8854 10.8538 22.4574L11.6186 21.0231ZM7.79009 19.3992C6.76092 19.1284 5.46092 18.9962 4.39925 18.929L4.2985 20.5508C5.33742 20.6158 6.50634 20.7414 7.37517 20.9711L7.79009 19.3992ZM23.0207 17.4893C23.0207 18.2324 22.4053 18.8792 21.5993 18.929L21.7012 20.5508C23.298 20.4511 24.6457 19.1522 24.6457 17.4882L23.0207 17.4893ZM24.6457 5.34511C24.6457 3.75911 23.3836 2.39844 21.7272 2.45586L21.7835 4.08194C22.4498 4.05811 23.0207 4.60519 23.0207 5.34294L24.6457 5.34511ZM1.354 17.4882C1.354 19.1522 2.70167 20.4522 4.2985 20.5529L4.39925 18.929C3.59325 18.8792 2.979 18.2303 2.979 17.4882H1.354ZM14.3811 21.0242C13.9557 21.2499 13.4814 21.368 12.9998 21.368C12.5182 21.368 12.044 21.2489 11.6186 21.0231L10.8548 22.4574C11.5154 22.8084 12.2519 22.9919 12.9998 22.9919C13.7478 22.9919 14.4843 22.8084 15.1448 22.4574L14.3811 21.0242ZM14.406 4.49902C13.969 4.75164 13.4753 4.88993 12.9707 4.9011C12.466 4.91228 11.9667 4.79597 11.5189 4.56294L10.7595 6.00052C11.4507 6.36228 12.2222 6.54226 13.0022 6.52578C13.7822 6.50931 14.5453 6.29582 15.2207 5.90519L14.406 4.49902ZM2.979 5.41552C2.979 4.66044 3.577 4.10036 4.26384 4.14261L4.3635 2.51977C2.67567 2.41686 1.354 3.79269 1.354 5.41552H2.979Z" fill="#FFD150"/>
<path d="M21.7553 3.26944L21.7835 4.08194M21.7835 4.08194C20.5713 4.12419 19.1369 4.24986 18.1078 4.55752M21.7835 4.08194L21.7272 2.45802C20.4933 2.50136 18.8823 2.62811 17.6419 2.99969M21.7835 4.08194L21.7272 2.45586C23.3836 2.39844 24.6457 3.75911 24.6457 5.34511M21.7835 4.08194C22.4498 4.05811 23.0207 4.60519 23.0207 5.34294L24.6457 5.34511M17.8748 3.77861L17.6419 2.99969M17.6419 2.99969L18.1078 4.55752M17.6419 2.99969C16.564 3.32252 15.3518 3.95411 14.406 4.50119L15.2207 5.90736C16.1415 5.37436 17.2194 4.82402 18.1078 4.55752M14.8133 5.20319L14.406 4.49902M14.406 4.49902C13.969 4.75164 13.4753 4.88993 12.9707 4.9011C12.466 4.91228 11.9667 4.79597 11.5189 4.56294L10.7595 6.00052M14.406 4.49902L15.2207 5.90519C14.5453 6.29582 13.7822 6.50931 13.0022 6.52579C12.2222 6.54226 11.4507 6.36228 10.7595 6.00052M4.31367 3.33119L4.26384 4.14261M4.26384 4.14261C5.31034 4.20652 6.4955 4.33111 7.37625 4.56402M4.26384 4.14261L4.3635 2.51977M4.26384 4.14261C3.577 4.10036 2.979 4.66044 2.979 5.41552M7.58317 3.77861L7.79009 2.99211M7.79009 2.99211L7.37625 4.56402M7.79009 2.99211C6.75009 2.71694 5.43275 2.58586 4.3635 2.51977M11.1387 5.28227L10.7595 6.00052M10.7595 6.00052C9.70109 5.44152 8.41842 4.83919 7.37625 4.56402M10.7595 6.00052L11.5178 4.56402C10.4399 3.99311 9.02184 3.31819 7.79117 2.99319L7.37625 4.56402M14.7635 21.7414L15.1448 22.4585M18.4165 20.1868L18.2096 19.4003M18.2096 19.4003L18.6234 20.9711M18.2096 19.4003C16.9421 19.7339 15.4731 20.4414 14.3811 21.0242M21.6503 19.7415L21.7012 20.5529M11.2362 21.7414L10.8548 22.4585M7.58317 20.1868L7.79009 19.4003M4.34942 19.7415L4.2985 20.5529M4.2985 20.5529C2.70167 20.4522 1.354 19.1522 1.354 17.4882H2.979M4.2985 20.5529L4.39925 18.929M2.979 17.4882V5.41552M2.979 17.4882L1.354 17.4904V5.41552M2.979 17.4882C2.979 18.2303 3.59325 18.8792 4.39925 18.929M2.979 5.41552H1.354M1.354 5.41552C1.354 3.79269 2.67567 2.41686 4.3635 2.51977M24.6457 17.4882V5.34511M24.6457 17.4882L23.0207 17.4893M24.6457 17.4882C24.6457 19.1522 23.298 20.4511 21.7012 20.5508M24.6457 5.34511H23.0207V17.4893M23.0207 17.4893C23.0207 18.2324 22.4053 18.8792 21.5993 18.929M15.1448 22.4574C16.2184 21.8854 17.5488 21.2549 18.6234 20.9711M15.1448 22.4574L14.3811 21.0242M15.1448 22.4574C14.4843 22.8084 13.7478 22.9919 12.9998 22.9919C12.2519 22.9919 11.5154 22.8084 10.8548 22.4574L11.6186 21.0231M18.6234 20.9711C19.4933 20.7414 20.6623 20.6158 21.7012 20.5508M18.6234 20.9711L18.2085 19.3992C19.2388 19.1273 20.5377 18.9962 21.5993 18.929M14.3811 21.0242C13.9557 21.2499 13.4814 21.368 12.9998 21.368C12.5182 21.368 12.044 21.2489 11.6186 21.0231M21.7012 20.5508L21.5993 18.929M11.6186 21.0231C10.5266 20.4414 9.05867 19.7339 7.79009 19.3992M11.6186 21.0231L10.8538 22.4574C9.78125 21.8854 8.45092 21.2549 7.37625 20.97L7.79009 19.3992M7.79009 19.3992C6.76092 19.1284 5.46092 18.9962 4.39925 18.929M7.79009 19.3992L7.37517 20.9711C6.50634 20.7414 5.33742 20.6158 4.2985 20.5508L4.39925 18.929" stroke="#FFD150" stroke-width="0.270833"/>
<path d="M13 5.95837V22.2084" stroke="#FFD150" stroke-width="2.16667"/>
</svg>
