<svg width="20" height="20" viewBox="0 0 20 20" fill="none" xmlns="http://www.w3.org/2000/svg">
<path d="M14.1667 7.50171C15.9792 7.51171 16.9609 7.59254 17.6009 8.23254C18.3334 8.96504 18.3334 10.1434 18.3334 12.5V13.3334C18.3334 15.6909 18.3334 16.8692 17.6009 17.6017C16.8692 18.3334 15.6901 18.3334 13.3334 18.3334H6.66675C4.31008 18.3334 3.13091 18.3334 2.39925 17.6017C1.66675 16.8684 1.66675 15.6909 1.66675 13.3334V12.5C1.66675 10.1434 1.66675 8.96504 2.39925 8.23254C3.03925 7.59254 4.02091 7.51171 5.83341 7.50171" stroke="#8F8F8F" stroke-width="1.25" stroke-linecap="round"/>
<path d="M10 1.66669V12.5M10 12.5L7.5 9.58335M10 12.5L12.5 9.58335" stroke="#8F8F8F" stroke-width="1.25" stroke-linecap="round" stroke-linejoin="round"/>
</svg>
