<svg width="24" height="24" viewBox="0 0 24 24" fill="none" xmlns="http://www.w3.org/2000/svg">
<path d="M2.68993 6.70505C2.61169 6.52205 2.46396 6.37763 2.27924 6.30355C2.09451 6.22947 1.88793 6.23181 1.70493 6.31005C1.52193 6.38829 1.37751 6.53602 1.30343 6.72074C1.22935 6.90547 1.23169 7.11205 1.30993 7.29505L2.68993 6.70505ZM9.04093 13.7381C9.0969 13.6555 9.13586 13.5627 9.15553 13.465C9.1752 13.3672 9.17518 13.2665 9.15548 13.1688C9.13578 13.0711 9.09679 12.9782 9.04079 12.8958C8.9848 12.8133 8.91291 12.7428 8.82935 12.6884C8.74578 12.634 8.65221 12.5968 8.55411 12.579C8.45601 12.5612 8.35535 12.5632 8.25801 12.5848C8.16067 12.6063 8.0686 12.6471 7.9872 12.7047C7.9058 12.7622 7.8367 12.8355 7.78393 12.9201L9.04093 13.7381ZM6.37093 15.0911C6.31722 15.1737 6.2803 15.266 6.26229 15.3629C6.24428 15.4598 6.24552 15.5592 6.26595 15.6556C6.30721 15.8503 6.42411 16.0206 6.59093 16.1291C6.75775 16.2375 6.96083 16.2753 7.15549 16.234C7.25188 16.2136 7.3433 16.1744 7.42453 16.1186C7.50576 16.0629 7.57522 15.9917 7.62893 15.9091L6.37093 15.0911ZM22.6899 7.29505C22.7598 7.11389 22.7566 6.9127 22.6812 6.73381C22.6057 6.55491 22.4638 6.41225 22.2853 6.33583C22.1068 6.25941 21.9057 6.25519 21.7241 6.32405C21.5426 6.3929 21.3948 6.52948 21.3119 6.70505L22.6899 7.29505ZM19.9699 13.1601C20.0386 13.2337 20.1214 13.2928 20.2134 13.3338C20.3054 13.3748 20.4047 13.3969 20.5054 13.3986C20.6061 13.4004 20.7061 13.3819 20.7995 13.3442C20.8929 13.3065 20.9777 13.2503 21.049 13.1791C21.1202 13.1079 21.1763 13.023 21.2141 12.9296C21.2518 12.8363 21.2703 12.7362 21.2685 12.6355C21.2667 12.5348 21.2447 12.4355 21.2037 12.3435C21.1627 12.2515 21.1036 12.1687 21.0299 12.1001L19.9699 13.1601ZM11.2499 16.5001C11.2499 16.699 11.3289 16.8897 11.4696 17.0304C11.6103 17.171 11.801 17.2501 11.9999 17.2501C12.1988 17.2501 12.3896 17.171 12.5303 17.0304C12.6709 16.8897 12.7499 16.699 12.7499 16.5001H11.2499ZM16.3709 15.9091C16.4794 16.0759 16.6497 16.1928 16.8444 16.234C17.039 16.2753 17.2421 16.2375 17.4089 16.1291C17.5757 16.0206 17.6926 15.8503 17.7339 15.6556C17.7752 15.461 17.7374 15.2579 17.6289 15.0911L16.3709 15.9091ZM5.53093 11.6591C5.66328 11.5168 5.73523 11.3286 5.73162 11.1343C5.728 10.94 5.64912 10.7547 5.51157 10.6174C5.37403 10.4802 5.18857 10.4016 4.99426 10.3984C4.79996 10.3951 4.61198 10.4674 4.46993 10.6001L5.53093 11.6591ZM2.96993 12.0991C2.83745 12.2412 2.76533 12.4293 2.76875 12.6236C2.77218 12.8179 2.85089 13.0033 2.98831 13.1407C3.12572 13.2781 3.3111 13.3568 3.50541 13.3602C3.69971 13.3637 3.88775 13.2915 4.02993 13.1591L2.96993 12.0991ZM11.9999 13.2501C8.77593 13.2501 6.46093 11.6451 4.92493 9.99005C4.27944 9.29165 3.70898 8.52747 3.22293 7.71005C3.0399 7.40244 2.87073 7.08679 2.71593 6.76405L2.69393 6.71505L2.68993 6.70505L2.68893 6.70405L1.99993 7.00005L1.30993 7.29505L1.31093 7.29605L1.31193 7.29905L1.31493 7.30505L1.35493 7.39305C1.38093 7.45172 1.41993 7.53272 1.47193 7.63605C1.57493 7.84205 1.72793 8.13205 1.93393 8.47705C2.34393 9.16705 2.96893 10.0871 3.82493 11.0101C5.53993 12.8551 8.22393 14.7501 11.9999 14.7501V13.2501ZM15.3129 12.6311C14.3429 13.0141 13.2419 13.2501 11.9999 13.2501V14.7501C13.4379 14.7501 14.7249 14.4741 15.8619 14.0271L15.3129 12.6311ZM7.78393 12.9201L6.37093 15.0911L7.62893 15.9081L9.04093 13.7381L7.78393 12.9201ZM21.9999 7.00005L21.3099 6.70405H21.3109V6.70605L21.3039 6.71905L21.2759 6.78105C21.0842 7.17989 20.8705 7.56781 20.6359 7.94305C20.0353 8.91117 19.3127 9.7981 18.4859 10.5821L19.5129 11.6761C20.8006 10.4547 21.8581 9.01175 22.6349 7.41605L22.6739 7.33105L22.6839 7.30705L22.6879 7.30005V7.29705L22.6889 7.29605L21.9999 7.00005ZM18.4859 10.5821C17.6259 11.3881 16.5739 12.134 15.3129 12.6311L15.8619 14.0271C17.3349 13.4471 18.5469 12.5831 19.5129 11.6761L18.4859 10.5821ZM18.4699 11.6591L19.9699 13.1601L21.0299 12.0991L19.5299 10.5991L18.4699 11.6591ZM11.2499 14.0001V16.5001H12.7499V14.0001H11.2499ZM14.9589 13.7381L16.3709 15.9091L17.6289 15.0911L16.2159 12.9201L14.9589 13.7381ZM4.46893 10.5981L2.96893 12.0981L4.02993 13.1591L5.52993 11.6601L4.46893 10.5981Z" fill="black"/>
</svg>
