<svg width="16" height="9" viewBox="0 0 16 9" fill="none" xmlns="http://www.w3.org/2000/svg">
<path fill-rule="evenodd" clip-rule="evenodd" d="M11.8125 8.0625C12.8071 8.0625 13.7609 7.66741 14.4641 6.96415C15.1674 6.26089 15.5625 5.30706 15.5625 4.3125C15.5625 3.31794 15.1674 2.36411 14.4641 1.66085C13.7609 0.957588 12.8071 0.5625 11.8125 0.5625C10.8179 0.5625 9.86411 0.957588 9.16085 1.66085C8.45759 2.36411 8.0625 3.31794 8.0625 4.3125C8.0625 5.30706 8.45759 6.26089 9.16085 6.96415C9.86411 7.66741 10.8179 8.0625 11.8125 8.0625ZM12.375 2.8125C12.375 2.66332 12.3157 2.52024 12.2102 2.41475C12.1048 2.30926 11.9617 2.25 11.8125 2.25C11.6633 2.25 11.5202 2.30926 11.4148 2.41475C11.3093 2.52024 11.25 2.66332 11.25 2.8125V4.197C11.25 4.332 11.2988 4.46325 11.3873 4.56525L12.1372 5.43075C12.1856 5.48659 12.2445 5.53237 12.3105 5.56545C12.3766 5.59854 12.4485 5.6183 12.5222 5.62359C12.5959 5.62888 12.6699 5.61961 12.74 5.5963C12.8101 5.573 12.8749 5.53611 12.9307 5.48775C12.9866 5.43939 13.0324 5.38051 13.0655 5.31446C13.0985 5.24841 13.1183 5.17649 13.1236 5.10281C13.1289 5.02912 13.1196 4.95512 13.0963 4.88502C13.073 4.81492 13.0361 4.75009 12.9877 4.69425L12.375 3.987V2.8125Z" fill="#2567FF"/>
<path opacity="0.5" fill-rule="evenodd" clip-rule="evenodd" d="M0 0.5625C0 0.413316 0.0592632 0.270242 0.164752 0.164752C0.270242 0.0592632 0.413316 0 0.5625 0H6.5625C6.71168 0 6.85476 0.0592632 6.96025 0.164752C7.06574 0.270242 7.125 0.413316 7.125 0.5625C7.125 0.711684 7.06574 0.854758 6.96025 0.960248C6.85476 1.06574 6.71168 1.125 6.5625 1.125H0.5625C0.413316 1.125 0.270242 1.06574 0.164752 0.960248C0.0592632 0.854758 0 0.711684 0 0.5625ZM0 4.3125C0 4.16332 0.0592632 4.02024 0.164752 3.91475C0.270242 3.80926 0.413316 3.75 0.5625 3.75H5.0625C5.21168 3.75 5.35476 3.80926 5.46025 3.91475C5.56574 4.02024 5.625 4.16332 5.625 4.3125C5.625 4.46168 5.56574 4.60476 5.46025 4.71025C5.35476 4.81574 5.21168 4.875 5.0625 4.875H0.5625C0.413316 4.875 0.270242 4.81574 0.164752 4.71025C0.0592632 4.60476 0 4.46168 0 4.3125ZM0 8.0625C0 7.91332 0.0592632 7.77024 0.164752 7.66475C0.270242 7.55926 0.413316 7.5 0.5625 7.5H6.5625C6.71168 7.5 6.85476 7.55926 6.96025 7.66475C7.06574 7.77024 7.125 7.91332 7.125 8.0625C7.125 8.21168 7.06574 8.35476 6.96025 8.46025C6.85476 8.56574 6.71168 8.625 6.5625 8.625H0.5625C0.413316 8.625 0.270242 8.56574 0.164752 8.46025C0.0592632 8.35476 0 8.21168 0 8.0625Z" fill="#2567FF"/>
</svg>
