<svg width="144" height="64" viewBox="0 0 144 64" fill="none" xmlns="http://www.w3.org/2000/svg">
<rect width="144" height="64" rx="32" fill="#404040"/>
<path d="M38.7133 31.52L41.1613 25.4H43.3393L38.2813 38H36.1213L37.9573 33.41H35.6353L32.2873 25.4H34.5193L36.9853 31.52H38.7133ZM49.6369 28.82H51.5269V38H49.6369V34.868C48.8689 35.276 48.0229 35.48 47.0989 35.48C46.0189 35.48 45.1789 35.174 44.5789 34.562C43.9909 33.938 43.6969 33.044 43.6969 31.88V28.82H45.5869V31.7C45.5869 33.08 46.1869 33.77 47.3869 33.77C48.3589 33.77 49.1089 33.59 49.6369 33.23V28.82ZM57.3713 38H54.0413V28.82H55.9313L55.9133 36.29H56.3633L59.3873 28.82H62.7173V38H60.8273L60.8453 30.53H60.3953L57.3713 38ZM69.1085 38H67.2185V30.53H64.1585V28.82H72.1685V30.53H69.1085V38ZM77.8177 31.88C78.9577 31.88 79.8277 32.168 80.4277 32.744C81.0397 33.308 81.3457 34.04 81.3457 34.94C81.3457 35.84 81.0397 36.578 80.4277 37.154C79.8277 37.718 78.9577 38 77.8177 38H73.6057V28.82H75.4957V31.88H77.8177ZM77.9077 36.29C78.3877 36.29 78.7477 36.17 78.9877 35.93C79.2397 35.69 79.3657 35.36 79.3657 34.94C79.3657 34.52 79.2397 34.19 78.9877 33.95C78.7477 33.71 78.3877 33.59 77.9077 33.59H75.4957V36.29H77.9077Z" fill="white"/>
<path fill-rule="evenodd" clip-rule="evenodd" d="M98.5185 24.0185C98.1605 24.3765 98.1605 24.9569 98.5185 25.3148L105.204 32L98.5185 38.6852C98.1605 39.0431 98.1605 39.6235 98.5185 39.9815C98.8765 40.3395 99.4569 40.3395 99.8148 39.9815L107.148 32.6482C107.506 32.2902 107.506 31.7098 107.148 31.3518L99.8148 24.0185C99.4569 23.6605 98.8765 23.6605 98.5185 24.0185Z" fill="white" fill-opacity="0.62"/>
</svg>
