<svg width="14" height="14" viewBox="0 0 14 14" fill="none" xmlns="http://www.w3.org/2000/svg">
<path fill-rule="evenodd" clip-rule="evenodd" d="M6.79118 4.66894C6.67861 4.66894 6.57065 4.71366 6.49106 4.79326C6.41146 4.87286 6.36674 4.98081 6.36674 5.09338L6.36674 11.3032L5.416 10.1934C5.34276 10.1079 5.23853 10.0549 5.12624 10.0462C5.01395 10.0375 4.90281 10.0738 4.81726 10.147C4.73171 10.2203 4.67876 10.3245 4.67005 10.4368C4.66135 10.5491 4.69761 10.6602 4.77085 10.7458L6.46861 12.7265C6.50845 12.7731 6.55792 12.8105 6.6136 12.8361C6.66929 12.8618 6.72987 12.8751 6.79118 12.8751C6.85249 12.8751 6.91307 12.8618 6.96875 12.8361C7.02444 12.8105 7.07391 12.7731 7.11375 12.7265L8.8115 10.7458C8.84777 10.7034 8.87534 10.6543 8.89263 10.6013C8.90993 10.5483 8.91661 10.4924 8.9123 10.4368C8.908 10.3812 8.89278 10.327 8.86752 10.2773C8.84226 10.2275 8.80746 10.1833 8.7651 10.147C8.72274 10.1108 8.67365 10.0832 8.62063 10.0659C8.56762 10.0486 8.51172 10.0419 8.45612 10.0462C8.40052 10.0505 8.34631 10.0658 8.2966 10.091C8.24688 10.1163 8.20262 10.1511 8.16636 10.1934L7.21562 11.3026L7.21562 5.09338C7.21562 4.85909 7.02547 4.66894 6.79118 4.66894Z" fill="black"/>
<path d="M4.52735 8.48889C4.92463 8.48889 5.12326 8.48889 5.26644 8.39325C5.328 8.35206 5.38088 8.29918 5.42207 8.23762C5.51771 8.09445 5.51771 7.89581 5.51771 7.49854V5.09339C5.51771 4.75568 5.65186 4.43181 5.89065 4.19302C6.12945 3.95423 6.45332 3.82007 6.79102 3.82007C7.12873 3.82007 7.4526 3.95423 7.69139 4.19302C7.93018 4.43181 8.06434 4.75568 8.06434 5.09339V7.49854C8.06434 7.89581 8.06434 8.09445 8.15998 8.23762C8.20117 8.29918 8.25404 8.35206 8.3156 8.39325C8.45878 8.48889 8.65742 8.48889 9.05469 8.48889C10.6551 8.48889 11.4559 8.48889 11.9528 7.99145C12.4502 7.49457 12.4502 6.69493 12.4502 5.09395V4.52804C12.4502 2.92649 12.4502 2.12685 11.9528 1.62941C11.4559 1.13197 10.6551 1.13197 9.05469 1.13197L4.52735 1.13197C2.92694 1.13197 2.12616 1.13197 1.62929 1.62941C1.13241 2.12685 1.13185 2.92706 1.13185 4.52747V5.09339C1.13185 6.69437 1.13185 7.49457 1.62929 7.99145C2.12616 8.48889 2.92694 8.48889 4.52735 8.48889Z" fill="black"/>
</svg>
