<svg width="24" height="24" viewBox="0 0 24 24" fill="none" xmlns="http://www.w3.org/2000/svg">
<path d="M21.5061 12.554C21.583 12.4837 21.6443 12.3982 21.6863 12.3029C21.7283 12.2076 21.75 12.1046 21.75 12.0005C21.75 11.8963 21.7283 11.7933 21.6863 11.698C21.6443 11.6027 21.583 11.5172 21.5061 11.447L17.1311 7.44696C16.9829 7.32334 16.7927 7.26163 16.6001 7.27466C16.4075 7.28769 16.2274 7.37447 16.0972 7.51693C15.9669 7.65939 15.8967 7.84658 15.9009 8.03954C15.9052 8.23251 15.9837 8.4164 16.1201 8.55296L19.0701 11.249H8.0001C7.80119 11.249 7.61042 11.328 7.46977 11.4686C7.32912 11.6093 7.2501 11.8001 7.2501 11.999C7.2501 12.1979 7.32912 12.3886 7.46977 12.5293C7.61042 12.6699 7.80119 12.749 8.0001 12.749H19.0681L16.1181 15.446C15.9713 15.5803 15.8839 15.7674 15.8751 15.9662C15.8663 16.165 15.9368 16.3592 16.0711 16.506C16.2054 16.6528 16.3926 16.7402 16.5914 16.749C16.7902 16.7578 16.9843 16.6873 17.1311 16.553L21.5061 12.554Z" fill="#B0B0B0"/>
<path d="M9 3.75C9.19891 3.75 9.38968 3.67098 9.53033 3.53033C9.67098 3.38968 9.75 3.19891 9.75 3C9.75 2.80109 9.67098 2.61032 9.53033 2.46967C9.38968 2.32902 9.19891 2.25 9 2.25H8.945C7.578 2.25 6.475 2.25 5.608 2.367C4.708 2.487 3.95 2.747 3.348 3.348C2.746 3.95 2.488 4.708 2.366 5.608C2.25 6.475 2.25 7.578 2.25 8.945L2.25 15.055C2.25 16.422 2.25 17.525 2.366 18.392C2.488 19.292 2.746 20.05 3.348 20.652C3.95 21.254 4.708 21.512 5.608 21.634C6.475 21.75 7.578 21.75 8.945 21.75H9C9.19891 21.75 9.38968 21.671 9.53033 21.5303C9.67098 21.3897 9.75 21.1989 9.75 21C9.75 20.8011 9.67098 20.6103 9.53033 20.4697C9.38968 20.329 9.19891 20.25 9 20.25C7.565 20.25 6.564 20.248 5.808 20.147C5.074 20.048 4.686 19.867 4.409 19.591C4.132 19.314 3.952 18.926 3.853 18.191C3.752 17.436 3.75 16.435 3.75 15L3.75 9C3.75 7.565 3.752 6.563 3.853 5.808C3.952 5.074 4.133 4.686 4.409 4.409C4.686 4.132 5.074 3.952 5.809 3.853C6.564 3.752 7.565 3.75 9 3.75Z" fill="#B0B0B0"/>
</svg>
