<svg width="56" height="56" viewBox="0 0 56 56" fill="none" xmlns="http://www.w3.org/2000/svg">
<rect width="56" height="56" rx="28" fill="#404040"/>
<path d="M35.8751 25.3283V24.5058C35.8751 19.9919 32.3471 16.3333 28.0001 16.3333C23.6531 16.3333 20.1251 19.9919 20.1251 24.5058V25.3283C20.1265 26.3101 19.8463 27.2717 19.3177 28.0991L18.0251 30.1116C16.8456 31.9491 17.7462 34.4469 19.7984 35.0279C25.1605 36.548 30.8396 36.548 36.2017 35.0279C38.2539 34.4469 39.1546 31.9491 37.9751 30.1128L36.6824 28.1003C36.1534 27.273 35.8728 26.3113 35.8739 25.3294L35.8751 25.3283Z" stroke="white" stroke-width="1.5"/>
<path d="M22.75 36.1667C23.5142 38.206 25.5757 39.6667 28 39.6667C30.4243 39.6667 32.4858 38.206 33.25 36.1667M28 21V25.6667" stroke="white" stroke-width="1.5" stroke-linecap="round"/>
</svg>
