<svg width="56" height="56" viewBox="0 0 56 56" fill="none" xmlns="http://www.w3.org/2000/svg">
<rect width="56" height="56" rx="28" fill="#EEEEF0"/>
<g clip-path="url(#clip0_44_848)">
<path fill-rule="evenodd" clip-rule="evenodd" d="M30.4815 20.0185C30.8395 20.3765 30.8395 20.9569 30.4815 21.3148L23.7964 28L30.4815 34.6852C30.8395 35.0431 30.8395 35.6235 30.4815 35.9815C30.1235 36.3395 29.5431 36.3395 29.1852 35.9815L21.8518 28.6482C21.4938 28.2902 21.4938 27.7098 21.8518 27.3518L29.1852 20.0185C29.5431 19.6605 30.1235 19.6605 30.4815 20.0185Z" fill="white" fill-opacity="0.62"/>
<path opacity="0.5" d="M36 39H18" stroke="#6B6B6A" stroke-width="1.5" stroke-linecap="round" stroke-linejoin="round"/>
<path d="M36 28C36 27.057 36 26.586 35.707 26.293C35.414 26 34.943 26 34 26C33.057 26 32.586 26 32.293 26.293C32 26.586 32 27.057 32 28V34C32 34.943 32 35.414 32.293 35.707C32.586 36 33.057 36 34 36C34.943 36 35.414 36 35.707 35.707C36 35.414 36 34.943 36 34V28ZM29 24C29 23.057 29 22.586 28.707 22.293C28.414 22 27.943 22 27 22C26.057 22 25.586 22 25.293 22.293C25 22.586 25 23.057 25 24V34C25 34.943 25 35.414 25.293 35.707C25.586 36 26.057 36 27 36C27.943 36 28.414 36 28.707 35.707C29 35.414 29 34.943 29 34V24ZM22 21C22 20.057 22 19.586 21.707 19.293C21.414 19 20.943 19 20 19C19.057 19 18.586 19 18.293 19.293C18 19.586 18 20.057 18 21V34C18 34.943 18 35.414 18.293 35.707C18.586 36 19.057 36 20 36C20.943 36 21.414 36 21.707 35.707C22 35.414 22 34.943 22 34V21Z" stroke="#6B6B6A" stroke-width="1.5"/>
</g>
<defs>
<clipPath id="clip0_44_848">
<rect width="22" height="22" fill="white" transform="matrix(-1 0 0 1 39 17)"/>
</clipPath>
</defs>
</svg>
