<svg width="22" height="21" viewBox="0 0 22 21" fill="none" xmlns="http://www.w3.org/2000/svg">
<path d="M7.75 10.1782C7.75 11.8351 9.09315 13.1782 10.75 13.1782C12.4069 13.1782 13.75 11.8351 13.75 10.1782C13.75 8.52137 12.4069 7.17822 10.75 7.17822C9.09315 7.17822 7.75 8.52137 7.75 10.1782Z" stroke="#6B6B6A" stroke-width="1.5"/>
<path d="M20.598 11.9432C20.75 11.5762 20.75 11.1102 20.75 10.1782C20.75 9.24618 20.75 8.78018 20.598 8.41318C20.4975 8.17037 20.3501 7.94974 20.1643 7.76391C19.9784 7.57808 19.7578 7.4307 19.515 7.33019C19.292 7.23819 19.031 7.20118 18.652 7.18718C18.3781 7.18067 18.1103 7.10479 17.8736 6.96663C17.637 6.82846 17.4393 6.63254 17.299 6.39718C17.1652 6.15799 17.0943 5.88877 17.0929 5.61472C17.0915 5.34066 17.1597 5.07073 17.291 4.83018C17.469 4.49418 17.567 4.25118 17.599 4.01018C17.6681 3.4845 17.5257 2.95288 17.203 2.53219C16.96 2.21819 16.557 1.98418 15.75 1.51818C14.943 1.05218 14.54 0.818185 14.145 0.767185C13.8845 0.73282 13.6199 0.750105 13.3661 0.818052C13.1123 0.885998 12.8744 1.00328 12.666 1.16318C12.474 1.31118 12.313 1.51818 12.111 1.83918C11.814 2.31218 11.308 2.61619 10.75 2.61619C10.192 2.61619 9.686 2.31218 9.39 1.83918C9.187 1.51818 9.026 1.31018 8.834 1.16318C8.62556 1.00328 8.38767 0.885998 8.13389 0.818052C7.88012 0.750105 7.61545 0.73282 7.355 0.767185C6.961 0.819185 6.557 1.05218 5.75 1.51718C4.943 1.98418 4.54 2.21719 4.297 2.53219C4.13709 2.74062 4.01981 2.97852 3.95187 3.23229C3.88392 3.48606 3.86663 3.75073 3.901 4.01119C3.933 4.25119 4.031 4.49418 4.209 4.83018C4.34032 5.07073 4.40847 5.34066 4.40707 5.61472C4.40567 5.88877 4.33477 6.15799 4.201 6.39718C3.921 6.88018 3.406 7.16718 2.848 7.18718C2.468 7.20118 2.208 7.23719 1.985 7.33019C1.74218 7.4307 1.52155 7.57808 1.33572 7.76391C1.1499 7.94974 1.00251 8.17037 0.902 8.41318C0.75 8.78018 0.75 9.24618 0.75 10.1782C0.75 11.1102 0.75 11.5762 0.902 11.9432C1.00251 12.186 1.1499 12.4066 1.33572 12.5925C1.52155 12.7783 1.74218 12.9257 1.985 13.0262C2.208 13.1182 2.468 13.1552 2.848 13.1692C3.406 13.1892 3.922 13.4762 4.201 13.9592C4.33477 14.1984 4.40567 14.4676 4.40707 14.7417C4.40847 15.0157 4.34032 15.2856 4.209 15.5262C4.031 15.8622 3.933 16.1052 3.901 16.3452C3.86663 16.6056 3.88392 16.8703 3.95187 17.1241C4.01981 17.3778 4.13709 17.6157 4.297 17.8242C4.539 18.1392 4.943 18.3722 5.75 18.8382C6.557 19.3042 6.96 19.5382 7.355 19.5892C7.61545 19.6235 7.88012 19.6063 8.13389 19.5383C8.38767 19.4704 8.62556 19.3531 8.834 19.1932C9.026 19.0452 9.187 18.8382 9.389 18.5172C9.5316 18.2831 9.73126 18.089 9.96929 17.9532C10.2073 17.8173 10.4759 17.744 10.75 17.7402C11.308 17.7402 11.814 18.0442 12.11 18.5172C12.313 18.8382 12.474 19.0462 12.666 19.1932C12.8744 19.3531 13.1123 19.4704 13.3661 19.5383C13.6199 19.6063 13.8845 19.6235 14.145 19.5892C14.539 19.5372 14.943 19.3042 15.75 18.8392C16.557 18.3722 16.96 18.1392 17.203 17.8242C17.3629 17.6157 17.4802 17.3778 17.5481 17.1241C17.6161 16.8703 17.6334 16.6056 17.599 16.3452C17.567 16.1052 17.469 15.8622 17.291 15.5252C17.1599 15.2848 17.0918 15.015 17.0932 14.7412C17.0946 14.4673 17.1654 14.1983 17.299 13.9592C17.4393 13.7238 17.637 13.5279 17.8736 13.3897C18.1103 13.2516 18.3781 13.1757 18.652 13.1692C19.032 13.1552 19.292 13.1192 19.515 13.0262C19.7578 12.9257 19.9784 12.7783 20.1643 12.5925C20.3501 12.4066 20.4975 12.186 20.598 11.9432Z" stroke="#6B6B6A" stroke-width="1.5"/>
</svg>
