<svg width="22" height="22" viewBox="0 0 22 22" fill="none" xmlns="http://www.w3.org/2000/svg">
<path d="M10.265 20.643L10.525 20.205L9.233 19.441L8.973 19.879L10.265 20.643ZM6.975 20.205L7.235 20.643L8.526 19.879L8.266 19.441L6.975 20.205ZM8.974 19.879C8.95105 19.9175 8.91814 19.9492 8.87873 19.9707C8.83932 19.9922 8.79485 20.0026 8.75 20.001C8.70515 20.0026 8.66068 19.9922 8.62127 19.9707C8.58186 19.9492 8.54895 19.9175 8.526 19.879L7.236 20.643C7.912 21.787 9.588 21.787 10.265 20.643L8.974 19.879ZM7.55 5.50098H9.95V4.00098H7.55V5.50098ZM16 11.551V12.351H17.5V11.551H16ZM1.5 12.351V11.551H6.24963e-07V12.351H1.5ZM6.24963e-07 12.351C6.24963e-07 13.273 5.88596e-07 14.001 0.0400006 14.591C0.0800006 15.187 0.165001 15.695 0.362001 16.169L1.747 15.595C1.639 15.334 1.572 15.008 1.537 14.489C1.5 13.962 1.5 13.293 1.5 12.351H6.24963e-07ZM5.063 17.586C4.271 17.561 3.84 17.492 3.506 17.354L2.932 18.739C3.529 18.987 4.187 19.059 5.015 19.086L5.063 17.586ZM0.362001 16.169C0.844086 17.3325 1.7685 18.2569 2.932 18.739L3.506 17.354C3.11157 17.1905 2.75321 16.951 2.45139 16.649C2.14958 16.347 1.91022 15.9895 1.747 15.595L0.362001 16.169ZM16 12.351C16 13.293 16 13.962 15.964 14.489C15.928 15.009 15.861 15.334 15.753 15.595L17.138 16.169C17.335 15.695 17.419 15.187 17.46 14.591C17.5 14.001 17.5 13.273 17.5 12.351H16ZM12.485 19.086C13.313 19.059 13.971 18.986 14.568 18.739L13.994 17.354C13.659 17.492 13.229 17.561 12.437 17.586L12.485 19.086ZM15.753 15.595C15.5896 15.9894 15.35 16.3478 15.048 16.6496C14.746 16.9514 14.3875 17.1908 13.993 17.354L14.568 18.739C15.7315 18.2569 16.6559 17.3325 17.138 16.169L15.753 15.595ZM9.95 5.50098C11.274 5.50098 12.214 5.50098 12.945 5.57098C13.665 5.63998 14.105 5.76998 14.448 5.97998L15.232 4.70098C14.613 4.32098 13.917 4.15698 13.087 4.07798C12.269 3.99998 11.245 4.00098 9.95 4.00098V5.50098ZM17.5 11.551C17.5 10.256 17.5 9.23198 17.423 8.41398C17.344 7.58398 17.179 6.88898 16.8 6.26998L15.521 7.05298C15.731 7.39598 15.861 7.83598 15.93 8.55598C16 9.28598 16 10.227 16 11.551H17.5ZM14.448 5.97998C14.8853 6.24796 15.253 6.61565 15.521 7.05298L16.8 6.26998C16.4084 5.63092 15.8711 5.09261 15.232 4.70098L14.448 5.97998ZM7.55 4.00098C6.255 4.00098 5.231 4.00098 4.413 4.07798C3.583 4.15698 2.887 4.32198 2.268 4.70098L3.052 5.97998C3.395 5.76998 3.835 5.63998 4.555 5.57098C5.285 5.50098 6.226 5.50098 7.55 5.50098V4.00098ZM1.5 11.551C1.5 10.227 1.5 9.28698 1.57 8.55598C1.639 7.83598 1.769 7.39598 1.979 7.05298L0.700001 6.26898C0.320001 6.88798 0.156001 7.58398 0.0770006 8.41398C-0.000999354 9.23198 6.24963e-07 10.256 6.24963e-07 11.551H1.5ZM2.268 4.70098C1.62894 5.09261 1.09164 5.62992 0.700001 6.26898L1.979 7.05298C2.24699 6.61565 2.61468 6.24796 3.052 5.97998L2.268 4.70098ZM8.267 19.441C8.066 19.101 7.89 18.803 7.719 18.567C7.54363 18.3085 7.31523 18.0903 7.049 17.927L6.285 19.219C6.331 19.246 6.395 19.296 6.505 19.449C6.625 19.614 6.761 19.842 6.975 20.205L8.267 19.441ZM5.015 19.086C5.461 19.1 5.745 19.11 5.962 19.136C6.166 19.161 6.243 19.194 6.285 19.219L7.048 17.928C6.758 17.757 6.454 17.685 6.143 17.648C5.845 17.611 5.482 17.6 5.063 17.586L5.015 19.086ZM10.525 20.205C10.739 19.842 10.875 19.614 10.995 19.449C11.105 19.296 11.169 19.246 11.215 19.219L10.452 17.928C10.1858 18.0913 9.95737 18.3095 9.782 18.568C9.61 18.803 9.434 19.102 9.233 19.441L10.525 20.205ZM12.437 17.586C12.018 17.6 11.655 17.611 11.357 17.647C11.047 17.685 10.741 17.758 10.452 17.928L11.215 19.219C11.257 19.194 11.334 19.161 11.538 19.136C11.754 19.11 12.039 19.1 12.485 19.086L12.437 17.586Z" fill="#6B6B6A"/>
<path d="M12.1249 1.5H14.3749V0L12.1249 0V1.5ZM19.9999 7.125V7.875H21.4999V7.125H19.9999ZM19.9999 7.875C19.9999 8.759 19.9999 9.385 19.9659 9.875C19.9329 10.361 19.8699 10.66 19.7719 10.898L21.1569 11.472C21.3439 11.021 21.4239 10.539 21.4619 9.978C21.4999 9.424 21.4999 8.738 21.4999 7.875H19.9999ZM19.7719 10.898C19.6212 11.2621 19.4001 11.5929 19.1215 11.8716C18.8428 12.1502 18.512 12.3712 18.1479 12.522L18.7219 13.908C19.2679 13.6817 19.7639 13.3502 20.1817 12.9322C20.5995 12.5142 20.9309 12.018 21.1569 11.472L19.7719 10.898ZM14.3749 1.5C15.6169 1.5 16.4949 1.501 17.1789 1.567C17.8499 1.631 18.2539 1.751 18.5669 1.943L19.3509 0.664C18.7629 0.304 18.1019 0.148 17.3209 0.074C16.5509 0 15.5879 0.00100005 14.3749 0.00100005V1.5ZM21.4999 7.126C21.4999 5.913 21.4999 4.951 21.4269 4.18C21.3529 3.399 21.1969 2.738 20.8369 2.15L19.5569 2.934C19.7499 3.247 19.8699 3.651 19.9339 4.322C19.9989 5.005 19.9999 5.884 19.9999 7.126H21.4999ZM18.5669 1.943C18.9704 2.1903 19.3096 2.53054 19.5569 2.934L20.8369 2.15C20.4655 1.54421 19.957 1.03498 19.3509 0.664L18.5669 1.943ZM12.1249 0.00100005C10.9119 0.00100005 9.94994 0.00100008 9.17894 0.0730001C8.39794 0.148 7.73694 0.303 7.14894 0.664L7.93194 1.944C8.24594 1.751 8.64994 1.631 9.32194 1.567C10.0039 1.502 10.8819 1.5 12.1249 1.5V0.00100005ZM7.14894 0.664C6.54315 1.03539 6.03392 1.54496 5.66294 2.151L6.94194 2.935C7.18924 2.53154 7.52847 2.1913 7.93194 1.944L7.14894 0.664ZM6.53194 4.791C6.58194 3.831 6.70694 3.318 6.94194 2.935L5.66294 2.151C5.22594 2.864 5.08694 3.689 5.03394 4.713L6.53194 4.791ZM16.7749 14.237C17.5419 14.211 18.1589 14.143 18.7219 13.91L18.1479 12.524C17.8459 12.649 17.4539 12.714 16.7249 12.738L16.7749 14.237Z" fill="#6B6B6A"/>
<path d="M5.26001 11.751H5.26801M8.75001 11.751H8.75901M12.241 11.751H12.25" stroke="#6B6B6A" stroke-width="2" stroke-linecap="round" stroke-linejoin="round"/>
</svg>
